<svg width="93" height="93" viewBox="0 0 93 93" fill="none" xmlns="http://www.w3.org/2000/svg">
<path d="M78.2257 49.9C77.3767 57.0245 74.1619 63.9254 68.6086 69.3126C55.7525 81.788 35.225 81.4677 22.7557 68.6116C13.2534 58.8102 11.1716 44.5582 16.4198 32.814C16.6827 32.2157 16.9667 31.6235 17.2749 31.0313C18.84 28.0341 20.9006 25.2272 23.4657 22.7497C35.5453 11.0357 54.417 10.6097 66.9861 21.2873L63.1851 25.9433C62.031 24.9553 60.8103 24.0791 59.5383 23.3268C49.5344 17.3625 36.4004 18.568 27.6443 27.0673C26.8255 27.8649 26.0672 28.6898 25.3783 29.5509C20.3779 35.7991 18.6254 43.8089 20.1452 51.308C21.1181 56.0879 23.4204 60.6562 27.0672 64.4269C37.2252 74.8991 53.9487 75.156 64.4269 64.998C68.7687 60.7892 71.355 55.4473 72.1678 49.9C72.476 47.8092 72.5273 45.6821 72.3279 43.5853C72.3279 43.5641 72.3219 43.54 72.3219 43.5188H78.3526C78.3526 43.54 78.3526 43.5641 78.3587 43.5853C78.5188 45.6912 78.4765 47.8032 78.2257 49.9Z" fill="black"/>
<path d="M66.7656 43.5219V49.4046C66.7596 49.462 66.7445 49.5375 66.7354 49.5949C66.7143 49.6977 66.6992 49.8004 66.669 49.9031C65.681 54.9821 62.7442 59.6804 58.1093 62.7803C48.8578 68.9712 36.3461 66.4937 30.1553 57.2391C28.0796 54.1331 26.9828 50.6675 26.7864 47.1899C26.6927 45.6399 26.7864 44.0839 27.0644 42.5641C27.9708 37.3401 30.9378 32.4787 35.6965 29.2911C43.386 24.1456 53.3174 24.9946 60.0037 30.7323L53.7464 38.3976C50.3473 35.343 45.1747 34.8444 41.1985 37.5063C39.298 38.7783 37.9596 40.57 37.2435 42.5641C36.7842 43.8271 36.5848 45.1746 36.6452 46.5312C36.6452 46.5826 36.6513 46.64 36.6513 46.6914C36.6664 46.8606 36.6815 47.0267 36.7027 47.1869C36.8779 48.7731 37.4248 50.3291 38.3765 51.7462C41.5278 56.4535 47.9 57.7104 52.6073 54.5591C54.3749 53.3747 55.662 51.7311 56.3992 49.8971C56.4445 49.7943 56.4868 49.6916 56.5231 49.5889H44.5946L47.5042 46.0297L48.0148 45.4012L49.5043 43.5823L49.5557 43.5159H66.7596L66.7656 43.5219Z" fill="black"/>
<path d="M84.5619 49.9002C84.7674 47.8034 84.8036 45.6914 84.6647 43.5855V43.522H87.6528C87.7012 44.3438 87.7253 45.1717 87.7253 46.0056C87.7253 68.9925 69.0923 87.6255 46.1055 87.6255C23.1186 87.6255 4.4856 68.9925 4.4856 46.0056C4.4856 23.0188 23.1186 4.38574 46.1055 4.38574C56.2876 4.38574 65.6147 8.04164 72.8479 14.1117L70.9686 16.414C55.9583 3.73312 33.482 4.26791 19.085 18.2328C16.0243 21.1878 13.5619 24.5415 11.6886 28.1219C11.323 28.8229 10.9877 29.5329 10.6734 30.249C4.40402 44.2744 6.88761 61.2939 18.239 72.9958C33.1255 88.3446 57.6382 88.7313 72.993 73.8298C79.8123 67.2159 83.6918 58.6865 84.5619 49.9002Z" fill="black"/>
<path d="M91.8918 49.9001C91.0156 60.5929 86.3959 71.0228 78.078 79.0839C59.8317 96.7924 30.6902 96.3301 12.9908 78.0838C-0.499763 64.1732 -3.4547 43.9359 3.99307 27.2668C4.36772 26.4177 4.77561 25.5778 5.20768 24.7378C7.42841 20.4837 10.3531 16.5015 14 12.9785C31.086 -3.59691 57.7469 -4.24651 75.5944 10.7487L73.564 13.2353C66.1374 7.0052 56.5565 3.25262 46.1054 3.25262C22.4931 3.25262 3.35253 22.3932 3.35253 46.0055C3.35253 69.6178 22.4931 88.7584 46.1054 88.7584C69.7177 88.7584 88.8583 69.6178 88.8583 46.0055C88.8583 45.1716 88.8342 44.3437 88.7858 43.5219H91.9795V43.5854C92.0973 45.6913 92.0671 47.8033 91.8918 49.9001Z" fill="black"/>
<path d="M64.3094 39.3345L63.4543 40.1895C63.6084 40.3013 63.826 40.4947 64.0073 40.7938C64.2429 41.1836 64.3003 41.5673 64.3094 41.8181C64.3185 41.5673 64.3759 41.1836 64.6115 40.7938C64.7928 40.4947 65.0104 40.3013 65.1645 40.1895L64.3094 39.3345Z" fill="#F2F2F2"/>
<path d="M46.6341 51.3686C49.5543 51.3686 51.9216 49.0013 51.9216 46.0812C51.9216 43.161 49.5543 40.7937 46.6341 40.7937C43.714 40.7937 41.3467 43.161 41.3467 46.0812C41.3467 49.0013 43.714 51.3686 46.6341 51.3686Z" fill="black"/>
</svg>
