<svg width="150" height="150" viewBox="0 0 150 150" fill="none" xmlns="http://www.w3.org/2000/svg">
<path d="M70.625 7.30566C68.6806 7.56955 67.9445 7.70844 66.7361 8.01399C58.2222 10.139 51.2361 17.139 49.125 25.6251C48.5139 28.0418 48.4167 28.9862 48.4167 31.7362C48.4167 34.4862 48.5139 35.4307 49.125 37.8473C51 45.4168 56.6806 51.764 64.1389 54.6529L65.3056 55.0973L62.6945 55.1807C58.3889 55.2918 57.9167 55.389 52.0139 57.1529C41.9861 60.1807 35.0278 62.9029 29.7917 65.8751C26.9445 67.5001 25.7084 68.7779 24.4445 71.4168C23.5556 73.2779 23.2917 74.4862 23.2778 76.6668C23.2639 79.014 23.5 79.889 24.9445 82.9584C25.5139 84.1807 25.9722 85.2223 25.9722 85.2918C25.9722 85.3612 25.8889 85.4168 25.8056 85.4168C25.4306 85.4168 22.3472 86.9446 21.1667 87.7084C14.3334 92.139 10.2222 98.8751 9.01392 107.639C8.81947 109.097 8.76392 113 8.94447 114.431C9.29169 117.431 9.95836 120.278 10.9584 123.111C11.3195 124.139 13.1528 127.889 13.4167 128.153C13.5278 128.264 13.6111 128.403 13.6111 128.472C13.6111 128.542 13.9861 129.153 14.4445 129.847C15.2084 131 15.5139 131.417 15.9028 131.861C15.9861 131.945 16.2084 132.236 16.3889 132.5C16.9861 133.347 19 135.445 20.3611 136.625C21.5972 137.708 21.8056 137.875 22.6389 138.472C23.0556 138.778 23.4722 139.07 23.5417 139.139C23.6945 139.264 26.0695 140.667 26.5695 140.917C29.9167 142.667 34.3334 143.958 37.6945 144.195C38.2084 144.236 38.2778 144.292 38.8056 145.195C39.5278 146.417 41.0695 147.972 42.2361 148.653C42.7222 148.945 43.625 149.347 44.2361 149.556L45.3472 149.931H72.7778H100.208L101.319 149.556C102.875 149.028 104.056 148.292 105.194 147.139C106.347 146 107.083 144.82 107.611 143.264L107.986 142.153L108.028 124.583L108.083 107.014L108.764 109.792C109.139 111.32 109.639 113.375 109.875 114.375C110.111 115.361 110.486 116.625 110.708 117.181C112.083 120.458 115.278 123.056 119.028 123.903C120.278 124.195 122.417 124.278 123.625 124.097C126.389 123.695 129.097 122.292 131.014 120.292C132.833 118.389 133.875 116.181 134.167 113.611C134.472 111.014 134.236 110.195 131.667 104.792C131.264 103.945 130.583 102.486 130.139 101.528C129.403 99.9307 127.028 94.8751 125.181 90.9723C124.722 90.0001 124.458 89.264 124.5 89.0973C125.25 86.2501 125.306 86.4307 121.944 80.0695C121.667 79.5279 120.986 78.2501 120.431 77.2084L119.444 75.3057L121.972 73.8057C123.375 72.9862 124.542 72.264 124.583 72.2223C124.694 72.0695 127.306 70.6945 127.458 70.6945C127.542 70.6945 127.875 71.1529 128.194 71.7223C128.944 73.0279 129.5 73.3195 130.403 72.8612C130.806 72.6529 131.111 72.1251 131.111 71.639C131.111 71.4723 130.861 70.9168 130.556 70.389C130.25 69.8473 130 69.389 130 69.3612C130 69.264 133.917 67.3612 134.111 67.3612C134.194 67.3612 134.542 67.889 134.903 68.514C135.542 69.6668 135.917 70.0001 136.542 70.0001C137.25 70.0001 137.917 69.3195 137.917 68.5834C137.917 68.4168 137.667 67.8612 137.361 67.3334C137.056 66.7918 136.806 66.3195 136.806 66.264C136.806 66.1945 137.681 65.8473 139.944 65.0418C140.014 65.014 140.375 65.514 140.736 66.1529C141.375 67.3057 141.75 67.639 142.375 67.639C143.083 67.639 143.75 66.9584 143.75 66.2362C143.75 66.0695 143.528 65.5557 143.264 65.0695L142.778 64.2084L144.125 63.9029C144.875 63.7362 145.569 63.5695 145.667 63.5418C145.889 63.4584 145.833 63.0834 145.208 60.6251C144.097 56.264 141.931 52.5279 138.514 49.0418L137.097 47.5973L135.972 48.6529C135.347 49.2501 134.792 49.7223 134.75 49.7223C134.694 49.7223 134.431 49.3057 134.167 48.8057C133.528 47.5973 132.889 47.264 132.014 47.6668C131.611 47.8473 131.25 48.4307 131.25 48.9029C131.25 49.0695 131.528 49.6945 131.875 50.2918C132.222 50.889 132.5 51.4445 132.5 51.514C132.5 51.6251 131.333 52.5834 129.903 53.639C129.792 53.7223 129.583 53.4862 129.25 52.8751C128.611 51.7362 128.014 51.4445 127.153 51.8334C126.75 52.014 126.389 52.5973 126.389 53.0695C126.389 53.2362 126.639 53.8057 126.944 54.3473C127.25 54.8751 127.486 55.3334 127.472 55.3473C127.444 55.3751 126.597 55.9307 125.569 56.5973C123.944 57.6668 123.681 57.7918 123.556 57.5973C123.472 57.4723 123.194 57.0001 122.931 56.5418C122.319 55.4584 121.694 55.1807 120.847 55.6112C120.444 55.8195 120.139 56.3473 120.139 56.8334C120.139 57.0001 120.389 57.5557 120.694 58.0973C121.014 58.6251 121.236 59.139 121.208 59.2084C121.139 59.4168 117.542 61.5001 113.958 63.4168C109.042 66.0279 105.222 68.0418 105.056 68.0834C104.972 68.1112 104.403 67.3751 103.778 66.4584C100.861 62.1251 97.0139 58.9723 92.2778 57.0418C89.2361 55.7918 86.7223 55.2918 83.0139 55.1807L80.3889 55.0973L81.6111 54.6251C84.875 53.3612 87.5695 51.5973 90.1389 49.0279C93.9445 45.2223 96.1389 40.9307 97.0973 35.4168C97.2084 34.8057 97.2778 33.2918 97.2778 31.7362C97.2778 28.2501 96.8473 25.7918 95.6806 22.8473C94.4167 19.6112 92.6806 16.9723 90.1389 14.4445C86.4028 10.7084 82.2223 8.54178 76.875 7.54178C75.8056 7.34734 71.4861 7.18066 70.625 7.30566ZM75.6945 9.50011C84.875 10.7223 92.3056 17.3195 94.5973 26.2779C96.9028 35.3612 93.1389 45.139 85.3056 50.3612C74.0695 57.8612 58.8611 53.8195 52.8195 41.7362C49.2084 34.514 49.7361 26.014 54.2084 19.3057C58.9167 12.2501 67.3611 8.40288 75.6945 9.50011ZM138.222 51.764C139.583 53.3612 140.681 54.9723 141.556 56.7084C142.236 58.0834 143.333 61.1251 143.333 61.6668C143.333 61.8612 143.181 61.9723 142.75 62.0834C138.139 63.2362 132.611 65.5001 126.764 68.6251C125.319 69.389 124.083 69.9723 124.028 69.9029C123.972 69.8473 123.014 68.1529 121.903 66.1529L119.889 62.514L122.278 61.0973C127.889 57.7362 132.486 54.5001 136.125 51.3195C136.611 50.9029 137.042 50.5557 137.083 50.5557C137.139 50.5557 137.639 51.0973 138.222 51.764ZM81.8056 58.0557C80.2361 59.8751 77.5417 61.6112 75.4861 62.1668C72.6389 62.9168 69.4722 62.3612 66.8056 60.639C65.8472 60.014 63.5834 57.9584 63.3195 57.4723C63.1945 57.2362 63.6111 57.2223 72.8611 57.2223H82.5278L81.8056 58.0557ZM61.6667 58.0973C62.3472 59.0973 64.4584 61.264 65.5417 62.0695C70.0695 65.4029 75.5278 65.4029 80.1111 62.0557C81.1667 61.2918 82.9584 59.4584 83.8195 58.2918C84.625 57.1945 84.6528 57.1945 87.0278 57.6529C93.2778 58.8473 98.7361 62.5279 102.25 67.9029C102.611 68.4584 102.917 69.0001 102.917 69.0834C102.917 69.1807 101.653 69.9168 100.111 70.7223C96.6111 72.5557 94.0834 73.889 86.9861 77.6112C83.9167 79.2362 81.3473 80.5557 81.2778 80.5557C81.1945 80.5557 80.9861 80.2918 80.7917 79.9584C80.0278 78.6529 78.375 76.6668 78.0556 76.6668C77.9723 76.6668 77.9167 76.5834 77.9167 76.4862C77.9167 76.4029 77.7639 76.2223 77.5973 76.0973C76.4167 75.2501 75.8195 74.8612 75.7084 74.8612C75.6389 74.8612 75.5139 74.764 75.4167 74.6668C75.3334 74.5557 74.9306 74.3612 74.5417 74.2223C74.1389 74.0973 73.6667 73.9029 73.4723 73.8057C72.8473 73.4584 70.5417 73.0557 69.2222 73.0557C67.8195 73.0557 65.8056 73.4168 64.5139 73.9029C63.5278 74.264 61.4861 75.639 60.3611 76.6668C59.1111 77.8195 57.1806 80.139 55.5139 82.4723C53.9861 84.6251 53.3056 85.2918 51.9861 85.9584C51.3334 86.2779 49.6806 86.7084 49.3334 86.639C49.1528 86.6112 48.8195 85.4584 47.9167 81.8057L46.7361 77.0279L46.2778 76.764C45.9861 76.5834 45.7084 76.5279 45.4722 76.5834C45 76.7084 44.4445 77.3195 44.4445 77.7223C44.4445 77.889 45.0695 80.5557 45.8195 83.639C46.5695 86.7223 47.2222 89.389 47.25 89.5696C47.2917 89.8751 47.2222 89.9168 46.5278 90.0557C44.8472 90.4029 43.9167 91.2501 42.9722 93.3057C42.9584 93.3196 42.625 93.264 42.2222 93.1807C40.3056 92.764 38.125 93.889 37.2917 95.7362L36.9445 96.5001L36.3472 96.3612C36.0278 96.2918 35.3611 96.264 34.8611 96.3057L33.9584 96.389L33.0278 94.4029C32.5278 93.3196 30.7639 89.5418 29.1111 86.0001C25.9445 79.2501 25.7084 78.5973 25.6945 76.764C25.6945 73.3612 27.3056 70.4584 30.625 67.9445C32.9028 66.2084 40.5139 62.9723 47.2917 60.8334C54.3056 58.6112 58.9861 57.389 60.4861 57.3751C61.1667 57.3751 61.1806 57.3751 61.6667 58.0973ZM119.569 67.8057C120.639 69.764 121.528 71.4307 121.528 71.4862C121.528 71.5834 119 73.139 118.583 73.3057C118.514 73.3334 118.194 73.1112 117.861 72.8057C116.514 71.5695 114.986 71.1945 113.208 71.6668C112.944 71.7362 112.708 71.7779 112.708 71.764C112.694 71.7501 112.417 71.2501 112.097 70.6668C111.472 69.5279 111.111 69.1668 110.583 69.1668C110.181 69.1668 109.583 69.7501 109.583 70.1529C109.583 70.3195 109.903 71.0557 110.278 71.764L110.986 73.0695L110.542 73.9723C110.208 74.6529 110.042 74.8473 109.875 74.7918C109.236 74.5418 108.181 74.5557 107.25 74.8473C106.708 75.014 106.222 75.2084 106.181 75.2779C106 75.5557 105.833 75.389 105.278 74.3751C104.667 73.2779 104.306 72.9168 103.778 72.9168C103.375 72.9168 102.778 73.5001 102.778 73.9029C102.778 74.0695 103.153 74.9029 103.597 75.7501C104.375 77.2223 104.403 77.3057 104.222 77.6668C104.042 78.0001 103.972 78.0279 103.667 77.9168C102.625 77.514 100.764 77.9584 99.6111 78.8751L99.0556 79.3057L98.4723 78.264C97.8611 77.1668 97.5 76.8057 96.9723 76.8057C96.5556 76.8057 95.9723 77.389 95.9723 77.8057C95.9723 77.9862 96.4167 78.9307 96.9445 79.9168C97.5973 81.1112 97.9167 81.8473 97.9167 82.1668C97.9167 82.8751 98.1945 84.014 98.4861 84.514C98.6945 84.8751 98.7223 84.9862 98.5834 85.1112C98.1945 85.4168 95.7639 86.8057 95.6528 86.764C95.5973 86.7501 94.75 85.2918 93.7778 83.5418C91.8889 80.1251 91.625 79.8195 90.875 80.0695C90.4028 80.2501 90.0695 80.8057 90.1806 81.264C90.2361 81.4445 91.0556 83.0279 92.0139 84.7779C92.9861 86.514 93.75 87.9584 93.7223 87.9862C93.5973 88.1112 90.6389 89.8473 90.6111 89.8196C90.5834 89.8057 89.7778 88.3473 88.8195 86.5973C87.8611 84.8334 86.9167 83.264 86.7223 83.0834C86.5278 82.9168 86.2223 82.7779 86.0278 82.7779C85.5973 82.7779 85 83.3612 85 83.7779C85 83.9584 85.75 85.4723 86.6806 87.1529C87.5973 88.8334 88.4445 90.3751 88.5556 90.5834L88.75 90.9584L87.3334 91.7918C86.5417 92.2501 85.8611 92.5834 85.8056 92.5279C85.75 92.4723 84.9167 90.9862 83.9584 89.2362C82.9861 87.4723 82.0695 85.9029 81.9028 85.7223C81.7361 85.5418 81.4584 85.4168 81.2223 85.4168C80.7361 85.4168 80.1389 85.9723 80.1389 86.4168C80.1389 86.5973 80.9861 88.2779 82.0139 90.139C83.0417 92.014 83.8889 93.6112 83.8889 93.6807C83.8889 93.8334 81.4167 95.3612 81.3334 95.264C81.3056 95.2362 80.4306 93.6668 79.3889 91.7779C78.3334 89.889 77.3473 88.2362 77.1806 88.1251C77.0139 88.014 76.7361 87.9168 76.5556 87.9168C76.1389 87.9168 75.5556 88.5001 75.5556 88.9168C75.5556 89.0973 76.4306 90.8334 77.5 92.7779C78.5695 94.7223 79.4445 96.3473 79.4445 96.389C79.4445 96.4862 77.7223 97.5001 77.5556 97.5001C77.4861 97.5001 76.5695 95.9446 75.5139 94.0279C74.4584 92.1251 73.4584 90.4723 73.2917 90.3473C73.125 90.2362 72.8473 90.139 72.6667 90.139C72.25 90.139 71.6667 90.7223 71.6667 91.139C71.6667 91.3196 72.5417 93.0557 73.6111 95.0001C74.6806 96.9446 75.5556 98.5834 75.5556 98.639C75.5556 98.8057 72.7361 100.431 72.6389 100.32C72.2778 99.9029 67.3472 90.7779 67.3889 90.5834C67.4167 90.4307 68.5972 89.7362 70.5556 88.7084C72.2778 87.7918 75 86.3612 76.5973 85.5279C85.2778 80.9584 89.1667 78.9168 92.6111 77.0973C94.0417 76.3473 99.5278 73.4584 104.792 70.6945C110.069 67.9168 115.056 65.2918 115.903 64.8473C116.736 64.4029 117.472 64.0834 117.514 64.139C117.556 64.1945 118.486 65.8473 119.569 67.8057ZM115.556 74.1945C116.056 74.4445 116.278 74.6945 116.625 75.3473C116.875 75.8057 117.083 76.264 117.083 76.3751C117.083 76.4862 117.167 76.639 117.278 76.7223C117.375 76.8057 117.889 77.6807 118.403 78.6807C118.917 79.6668 119.458 80.6668 119.583 80.9029C119.722 81.1251 120.431 82.5001 121.181 83.9445C122.417 86.3612 122.528 86.6251 122.444 87.139C122.319 87.9168 121.889 88.5418 121.292 88.8196C120.875 89.014 120.583 89.0418 119.639 88.9723C118.639 88.889 118.417 88.9168 117.861 89.1668C117.208 89.4862 116.667 90.0834 116.181 91.0279C116.028 91.3473 115.681 91.7362 115.417 91.9168C114.986 92.2084 114.792 92.2362 113.5 92.2084C111.694 92.1807 111.292 92.3612 110.694 93.4862C110.208 94.4168 109.375 95.2084 108.75 95.3473C108.139 95.4862 107.181 95.1946 106.764 94.7362C106.583 94.5418 105.097 91.8473 103.458 88.7501C100.722 83.5557 100.5 83.0695 100.486 82.4029C100.486 81.5973 100.764 81.1112 101.542 80.5834C101.931 80.3195 102.153 80.264 102.722 80.3057C103.889 80.4029 104.125 80.6668 105.681 83.6529C107.972 88.0696 108.306 88.6668 108.472 88.7223C108.611 88.7779 110.194 88.0279 110.472 87.764C110.569 87.6807 109.208 84.9307 108.056 82.8473C106.972 80.9029 106.486 79.7779 106.5 79.2362C106.514 77.5834 108.111 76.6251 109.583 77.389C110.264 77.7362 110.194 77.6112 112.736 82.5001C113.389 83.764 114.042 84.9862 114.194 85.2362L114.458 85.6807L115.486 85.1668C116.472 84.6807 116.694 84.4168 116.403 84.0834C116.347 84.014 115.778 82.9584 115.139 81.7362C114.514 80.514 113.653 78.8751 113.25 78.1112C112.25 76.2362 112.25 75.389 113.236 74.4723C113.903 73.8473 114.681 73.764 115.556 74.1945ZM71.7361 75.8195C73.0139 76.1668 74.0556 76.6251 75.0695 77.2918C75.9723 77.8751 77.8611 79.7223 77.9861 80.1529C78.0417 80.2918 78.125 80.4168 78.1806 80.4168C78.3195 80.4168 78.8889 81.4445 78.8889 81.6945C78.8889 81.7918 78.25 82.2223 77.4723 82.6251C74.75 84.0557 71.0278 86.014 68.7361 87.2362C67.4584 87.9168 66.3472 88.4723 66.2639 88.4723C66.1806 88.4723 66.1111 88.389 66.1111 88.2918C66.1111 88.1807 65.9861 87.9862 65.8472 87.8612C65.5834 87.6251 65.4167 87.6946 61.1945 90.014C58.4445 91.5418 56.8195 92.514 56.8195 92.639C56.8195 92.7501 57 93.1529 57.2361 93.5418C57.4584 93.9168 57.6945 94.3751 57.7639 94.5418C57.8472 94.7084 58.3472 95.5973 58.8889 96.5279C59.4167 97.4446 59.8611 98.2501 59.8611 98.2918C59.8611 98.3334 60.1389 98.8473 60.4722 99.4307C60.8056 100.014 61.3056 100.917 61.5972 101.458C61.8889 101.986 62.3611 102.833 62.6389 103.333C62.9167 103.833 63.1945 104.333 63.2361 104.445C63.3472 104.681 63.9445 105.75 64.75 107.111C65.0417 107.639 65.375 108.056 65.4584 108.056C65.8195 108.056 74.2361 103.264 74.2361 103.056C74.2361 102.945 74.1667 102.764 74.0695 102.667C73.9723 102.57 73.8889 102.431 73.8889 102.361C73.8889 102.208 75.5556 101.236 75.6945 101.32C75.75 101.347 75.8056 101.667 75.8056 102.014C75.8473 104.153 77.6389 106.681 79.9723 107.889C81.5695 108.722 82.5278 108.931 84.6945 108.917C86.2778 108.917 86.5417 108.945 86.6389 109.139C86.7084 109.264 86.7361 109.458 86.7223 109.542C86.7084 109.639 86.6945 109.778 86.6806 109.847C86.6667 110 83.8611 111.264 82.3611 111.792C80.5417 112.417 77.7778 113.028 75.5834 113.264C72.9861 113.556 72.2917 113.681 71.2084 114.014C68.2084 114.931 65.5139 117.181 64.0556 119.958C63.6111 120.806 63.0139 122.556 62.5556 124.389C61.875 127.153 60.0278 130.833 58.1806 133.097C54.6945 137.375 50.3889 140.083 45.0972 141.306C42.1389 141.986 38.2917 142.014 35 141.375C33.7639 141.139 30.9722 140.278 30 139.833C28.4861 139.153 26.7778 138.278 26.2778 137.958C26.0278 137.778 25.7917 137.639 25.7639 137.639C25.6389 137.639 23.9584 136.445 23.8472 136.292C23.7917 136.195 23.6389 136.111 23.5417 136.111C23.4306 136.111 23.3334 136.056 23.3334 136C23.3334 135.931 23.0417 135.667 22.6806 135.403C21.9445 134.889 19.0139 132 18.4722 131.264C18.2778 131 18.0417 130.708 17.9584 130.611C17.8611 130.514 17.7778 130.403 17.7778 130.347C17.7778 130.292 17.6945 130.181 17.6111 130.07C17.2222 129.667 16.9445 129.292 16.9445 129.181C16.9445 129.111 16.8889 129.028 16.8195 129C16.6389 128.931 15.2084 126.556 14.5834 125.306C13.7917 123.695 12.2778 119.861 12.4306 119.861C12.4584 119.861 12.3889 119.639 12.2778 119.375C12.1667 119.111 12.0834 118.875 12.0972 118.861C12.0972 118.833 12.0695 118.667 12.0417 118.472C11.4028 115.389 11.3195 114.5 11.3195 111.111C11.3195 107.861 11.4584 106.736 12.2361 103.875C13.8472 97.9584 17.5278 92.8612 22.3889 89.8196C23.5278 89.0973 26.3611 87.6946 26.8334 87.6112C27.0278 87.5834 27.2917 88.0279 28.0695 89.6529C28.6111 90.7918 29.2639 92.2084 29.5417 92.7779C30.6945 95.2223 31.8056 97.6529 31.8056 97.7223C31.8056 97.7779 31.5972 98.2223 31.3472 98.7362C30.9445 99.5696 30.9028 99.764 30.9028 100.972V102.292L31.9306 104.222C32.9306 106.125 32.9445 106.167 32.6806 106.389C31.9306 106.986 31.9584 107.556 32.7639 109C33.9445 111.083 34.7222 112.486 35.2778 113.542C35.6111 114.153 36.2084 115.208 36.5972 115.903C37 116.583 37.8056 118.042 38.3889 119.125C38.9861 120.195 39.5834 121.195 39.7361 121.333C40.1667 121.722 40.9445 121.667 41.3334 121.195C41.5139 120.986 41.6667 120.667 41.6667 120.472C41.6667 120.111 41.0972 118.889 40.1667 117.292C39.8611 116.764 39.625 116.292 39.6528 116.25C39.6806 116.195 40.0556 116.222 40.4722 116.292C42.3334 116.625 44.3611 115.556 45.2222 113.792L45.5834 113.07L46.7778 113.139C47.4445 113.181 48.0556 113.236 48.1389 113.264C48.2222 113.292 48.6806 114.042 49.1667 114.931C49.7778 116.056 50.1111 116.528 50.2639 116.5C50.7084 116.417 59.0278 111.736 59.0278 111.556C59.0278 111.472 58.5834 110.611 58.0556 109.681L57.0695 107.958L57.375 107.278C57.6111 106.764 57.6945 106.32 57.6945 105.403L57.7084 104.222L56.7084 102.278C56.1667 101.222 55.3611 99.6946 54.9445 98.889C54.5139 98.0834 53.5556 96.2501 52.8195 94.8057C51.9028 93.0418 51.2361 91.9446 50.7917 91.4446C50.3056 90.9168 50.0556 90.4862 49.9167 89.9723C49.8195 89.5696 49.7222 89.1946 49.7222 89.1529C49.7222 89.1112 50.1389 89.0001 50.6528 88.9029C53.3611 88.4029 55.2639 87.0557 57.2361 84.2223C60.2222 79.9307 62.875 77.2918 65.1528 76.3057C67.2361 75.4029 69.5695 75.2362 71.7361 75.8195ZM100.194 87.8057C100.597 88.5696 102.056 91.3473 103.556 94.2362C104.111 95.2779 104.667 96.1251 105.069 96.5418C105.417 96.889 105.764 97.389 105.833 97.6529C105.917 97.9446 105.972 106.042 105.972 119.653C105.972 143.306 106.014 142.014 105.125 143.778C104.528 144.958 103.125 146.389 101.958 147C100.097 147.972 102.083 147.917 72.7778 147.917C43.5 147.917 45.4445 147.972 43.625 147C43.125 146.736 42.5278 146.347 42.2917 146.139C41.6667 145.556 40.8334 144.597 40.8334 144.458C40.8334 144.389 41.2222 144.292 41.7084 144.25C44.9028 143.931 46.7639 143.528 49.0834 142.653C54.1528 140.75 58.5 137.222 61.5556 132.556C62.875 130.528 64.3334 127.236 64.9167 124.931C65.6667 122 66.1111 120.958 67.1528 119.611C68.0972 118.389 69.0834 117.597 70.625 116.847C71.8334 116.25 72.8195 116.028 75.625 115.695C79.6806 115.222 83.0695 114.306 86.25 112.82C87.9723 112.014 88.4861 111.611 88.9028 110.75C89.1389 110.236 89.1945 109.958 89.125 109.306C89.0278 108.236 88.625 107.528 87.75 106.945L87.0417 106.458L85.2639 106.5C83.2778 106.542 82.2223 106.347 81.0556 105.722C80.1945 105.25 79 104.083 78.6111 103.333C78.1945 102.528 78.1111 101.208 78.3889 100.236L78.6111 99.4584L80.1111 98.5696C80.9306 98.0834 84.9167 95.7223 88.9584 93.3334C93.0139 90.9446 97.0417 88.5557 97.9167 88.0418C98.7917 87.514 99.5834 87.0834 99.6528 87.0834C99.7361 87.0834 99.9723 87.4168 100.194 87.8057ZM65.4861 92.1807C65.8611 92.8612 66.3472 93.7501 66.5695 94.1668C66.7917 94.5834 67.3472 95.5696 67.7917 96.3473C68.25 97.1251 68.6111 97.7918 68.6111 97.8196C68.6111 97.8612 69.1389 98.8196 69.7917 99.9446C70.4445 101.083 70.9722 102.083 70.9722 102.167C70.9722 102.347 66.4167 104.903 66.2778 104.806C66.2222 104.778 66 104.389 65.7639 103.945C65.5417 103.5 65.2639 103.056 65.1806 102.945C65.0834 102.847 65 102.695 65 102.625C65 102.556 64.5278 101.695 63.9584 100.708C63.3889 99.7223 62.875 98.7918 62.8056 98.6529C62.75 98.514 62.375 97.8334 61.9861 97.139C61.5834 96.4446 61.25 95.8057 61.25 95.7084C61.25 95.6251 61.1945 95.5557 61.1111 95.5557C61.0417 95.5557 60.9722 95.4723 60.9722 95.3751C60.9722 95.2918 60.75 94.8473 60.4861 94.4168C60.1111 93.7779 60.0417 93.5834 60.1806 93.4584C60.4861 93.1807 64.3611 91.0001 64.5972 90.9862C64.7222 90.9723 65.0695 91.4307 65.4861 92.1807ZM123.125 93.139C123.625 94.1807 124.028 95.0418 124.028 95.0696C124.028 95.0834 124.444 95.9723 124.944 97.0279C125.458 98.0973 126.528 100.361 127.319 102.083C128.125 103.806 129.042 105.736 129.347 106.389C131.208 110.361 131.319 110.653 131.472 112.195C131.597 113.472 131.25 115.139 130.583 116.528C129.917 117.917 128.139 119.722 126.736 120.445C124.819 121.417 124.056 121.597 121.736 121.597C119.806 121.597 119.569 121.57 118.542 121.208C117.028 120.667 115.625 119.764 114.569 118.639C112.972 116.945 112.931 116.833 110.708 107.57C110.403 106.264 109.764 103.653 109.306 101.764C108.847 99.8612 108.472 98.2223 108.472 98.1251C108.472 98.0279 108.778 97.8751 109.208 97.7779C110.722 97.4168 111.847 96.5279 112.444 95.2084L112.792 94.4723L113.306 94.6112C114.028 94.8057 115.361 94.6807 116.194 94.3196C117.056 93.9446 118.083 92.9307 118.458 92.0696L118.75 91.4307L119.958 91.4862C120.653 91.5279 121.333 91.4862 121.528 91.4168C121.722 91.3334 121.958 91.264 122.056 91.264C122.153 91.2501 122.639 92.0973 123.125 93.139ZM48.4445 92.6946C48.6528 92.8057 48.9167 93.0001 49.0417 93.139C49.1667 93.2918 50.3334 95.4307 51.625 97.9168C55.5278 105.361 55.5 105.32 55.0834 106.292C54.8195 106.917 54.3472 107.306 53.625 107.5C53.1111 107.639 52.9167 107.625 52.4306 107.445C52.1111 107.32 51.7222 107.07 51.5695 106.903C51.4167 106.736 50.4306 104.945 49.375 102.917C48.3195 100.889 47.4167 99.1807 47.3611 99.1251C47.2639 99.014 45.7222 99.7084 45.3056 100.028C45.1806 100.139 45.3195 100.528 45.9584 101.722C48.8195 107.111 49.3334 108.222 49.2639 108.778C49.1806 109.445 48.7084 110.139 48.1667 110.458C47.6667 110.75 46.6528 110.764 46.1389 110.5C45.4722 110.153 45.4584 110.125 42.7084 104.792C42.0417 103.486 41.4306 102.375 41.375 102.306C41.25 102.167 39.3611 102.986 39.2084 103.236C39.1528 103.333 39.8889 104.792 42.375 109.542C43.0556 110.82 43.1945 111.208 43.1945 111.778C43.1945 113.056 42.2361 113.945 40.9445 113.847C39.8334 113.75 39.5417 113.417 37.8611 110.195C37.0278 108.597 36.1389 106.917 35.9028 106.458C33.6528 102.236 33.3056 101.5 33.3056 100.889C33.3056 100.139 33.6667 99.4862 34.3195 99.0557C34.75 98.7501 34.9028 98.7362 36.1111 98.7918C37.8472 98.8612 38.4028 98.639 38.9584 97.6112C39.5139 96.5973 40.2222 95.8612 40.8056 95.6946C41.0834 95.6251 41.7639 95.5973 42.3195 95.6529C43.75 95.7779 44.5 95.4307 45.1528 94.3196C45.7778 93.264 46.0834 92.8751 46.4306 92.6807C46.8472 92.4446 47.9861 92.4584 48.4445 92.6946ZM55.5278 110.07C55.625 110.264 55.6945 110.514 55.6945 110.611C55.6945 110.778 51.1389 113.431 51.0556 113.306C50.8195 112.986 50.4167 112.222 50.4167 112.097C50.4167 112.014 50.6389 111.625 50.9028 111.236C51.1667 110.847 51.3889 110.458 51.3889 110.361C51.4028 109.945 51.6111 109.861 52.4306 110C53.0417 110.097 53.4722 110.083 54.0278 109.945C55.1667 109.667 55.3472 109.681 55.5278 110.07Z" fill="white"/>
<path d="M41.1944 123.403C39.7222 123.931 38.75 125.917 39.2916 127.292C39.3889 127.514 39.4583 127.723 39.4583 127.737C39.3611 128.056 40.3611 129.098 40.9861 129.362C41.875 129.737 42.6528 129.764 43.4166 129.473C44.7916 128.959 45.5833 127.903 45.5972 126.542C45.625 124.181 43.4166 122.612 41.1944 123.403ZM42.8889 125.82C43.25 126.126 43.2916 126.695 42.9722 127.001C42.3055 127.667 41.125 126.681 41.7083 125.945C42.0416 125.514 42.4583 125.473 42.8889 125.82Z" fill="white"/>
<path d="M49.7916 128.362C48.4999 128.82 47.5555 130.264 47.6666 131.598C47.7499 132.639 48.4305 133.709 49.3055 134.209C50.5277 134.889 52.3055 134.653 53.2083 133.667C53.7916 133.042 54.1666 132.209 54.1666 131.584C54.1666 130.875 53.8471 129.806 53.5555 129.514C53.4444 129.389 53.2638 129.181 53.1666 129.056C53.0555 128.931 52.7221 128.681 52.4027 128.5C51.7638 128.167 50.5416 128.098 49.7916 128.362ZM51.5694 131L51.861 131.389L51.5694 131.764C51.0416 132.487 50.1388 132.25 50.1388 131.389C50.1388 130.945 50.5971 130.528 51.0277 130.584C51.1666 130.612 51.4166 130.792 51.5694 131Z" fill="white"/>
<path d="M31.5 128.82C28.3056 130 28.8056 134.625 32.1806 135.07C33.4722 135.25 34.875 134.5 35.4861 133.32C35.7361 132.848 35.8333 131.473 35.6528 130.848C35.1945 129.209 33.1528 128.209 31.5 128.82ZM33.1389 131.306C33.375 131.542 33.3889 131.987 33.1945 132.375C33.0278 132.681 32.1945 132.75 31.9861 132.459C31.7361 132.139 31.6945 131.681 31.9028 131.403C32.1389 131.056 32.8333 131.014 33.1389 131.306Z" fill="white"/>
<path d="M39.9305 133.834C38.7499 134.264 37.9444 135.445 37.9027 136.75C37.861 138.514 39.0277 139.834 40.8332 140.07C42.5555 140.306 44.3055 138.75 44.3055 136.987C44.3055 136.223 44.0138 135.25 43.6944 134.917C43.5694 134.806 43.4305 134.625 43.3749 134.514C43.3055 134.417 42.9582 134.167 42.5832 133.973C41.8055 133.556 40.8332 133.5 39.9305 133.834ZM41.7777 136.362C41.9999 136.653 41.986 136.959 41.7221 137.334C41.2638 137.987 40.2082 137.528 40.3055 136.723C40.3749 136.028 41.3332 135.806 41.7777 136.362Z" fill="white"/>
</svg>
