<svg width="153" height="93" viewBox="0 0 153 93" fill="none" xmlns="http://www.w3.org/2000/svg">
<path d="M78.2257 49.9C77.3767 57.0245 74.1619 63.9254 68.6086 69.3126C55.7525 81.788 35.225 81.4677 22.7557 68.6116C13.2534 58.8102 11.1716 44.5582 16.4198 32.814C16.6827 32.2157 16.9667 31.6235 17.2749 31.0313C18.84 28.0341 20.9006 25.2272 23.4657 22.7497C35.5453 11.0357 54.417 10.6097 66.9861 21.2873L63.1851 25.9433C62.031 24.9553 60.8103 24.0791 59.5383 23.3268C49.5344 17.3625 36.4004 18.568 27.6443 27.0673C26.8255 27.8649 26.0672 28.6898 25.3783 29.5509C20.3779 35.7991 18.6254 43.8089 20.1452 51.308C21.1181 56.0879 23.4204 60.6562 27.0672 64.4269C37.2252 74.8991 53.9487 75.156 64.4269 64.998C68.7687 60.7892 71.355 55.4473 72.1678 49.9C72.476 47.8092 72.5273 45.6821 72.3279 43.5853C72.3279 43.5641 72.3219 43.54 72.3219 43.5188H78.3526C78.3526 43.54 78.3526 43.5641 78.3587 43.5853C78.5188 45.6912 78.4765 47.8032 78.2257 49.9Z" fill="white"/>
<path d="M66.7656 43.5219V49.4046C66.7596 49.462 66.7445 49.5375 66.7354 49.5949C66.7143 49.6977 66.6992 49.8004 66.669 49.9031C65.681 54.9821 62.7442 59.6804 58.1093 62.7803C48.8578 68.9712 36.3461 66.4937 30.1553 57.2391C28.0796 54.1331 26.9828 50.6675 26.7864 47.1899C26.6927 45.6399 26.7864 44.0839 27.0644 42.5641C27.9708 37.3401 30.9378 32.4787 35.6965 29.2911C43.386 24.1456 53.3174 24.9946 60.0037 30.7323L53.7464 38.3976C50.3473 35.343 45.1747 34.8444 41.1985 37.5063C39.298 38.7783 37.9596 40.57 37.2435 42.5641C36.7842 43.8271 36.5848 45.1746 36.6452 46.5312C36.6452 46.5826 36.6513 46.64 36.6513 46.6914C36.6664 46.8606 36.6815 47.0267 36.7027 47.1869C36.8779 48.7731 37.4248 50.3291 38.3765 51.7462C41.5278 56.4535 47.9 57.7104 52.6073 54.5591C54.3749 53.3747 55.662 51.7311 56.3992 49.8971C56.4445 49.7943 56.4868 49.6916 56.5231 49.5889H44.5946L47.5042 46.0297L48.0148 45.4012L49.5043 43.5823L49.5557 43.5159H66.7596L66.7656 43.5219Z" fill="white"/>
<path d="M84.5619 49.9002C84.7674 47.8034 84.8036 45.6914 84.6647 43.5855V43.522H87.6528C87.7012 44.3438 87.7253 45.1717 87.7253 46.0056C87.7253 68.9925 69.0923 87.6255 46.1055 87.6255C23.1186 87.6255 4.4856 68.9925 4.4856 46.0056C4.4856 23.0188 23.1186 4.38574 46.1055 4.38574C56.2876 4.38574 65.6147 8.04164 72.8479 14.1117L70.9686 16.414C55.9583 3.73312 33.482 4.26791 19.085 18.2328C16.0243 21.1878 13.5619 24.5415 11.6886 28.1219C11.323 28.8229 10.9877 29.5329 10.6734 30.249C4.40402 44.2744 6.88761 61.2939 18.239 72.9958C33.1255 88.3446 57.6382 88.7313 72.993 73.8298C79.8123 67.2159 83.6918 58.6865 84.5619 49.9002Z" fill="white"/>
<path d="M91.8918 49.9001C91.0156 60.5929 86.3959 71.0228 78.078 79.0839C59.8317 96.7924 30.6902 96.3301 12.9908 78.0838C-0.499763 64.1732 -3.4547 43.9359 3.99307 27.2668C4.36772 26.4177 4.77561 25.5778 5.20768 24.7378C7.42841 20.4837 10.3531 16.5015 14 12.9785C31.086 -3.59691 57.7469 -4.24651 75.5944 10.7487L73.564 13.2353C66.1374 7.0052 56.5565 3.25262 46.1054 3.25262C22.4931 3.25262 3.35253 22.3932 3.35253 46.0055C3.35253 69.6178 22.4931 88.7584 46.1054 88.7584C69.7177 88.7584 88.8583 69.6178 88.8583 46.0055C88.8583 45.1716 88.8342 44.3437 88.7858 43.5219H91.9795V43.5854C92.0973 45.6913 92.0671 47.8033 91.8918 49.9001Z" fill="white"/>
<path d="M64.3278 40.3161H64.1374C63.4908 40.3161 62.9137 40.2466 62.4092 40.1046C61.9046 39.9626 61.5027 39.7874 61.2036 39.5729C60.9045 39.3583 60.6567 39.1045 60.4634 38.8084C60.27 38.5123 60.1371 38.2283 60.0676 37.9504C59.9981 37.6724 59.9648 37.3884 59.9648 37.0953V36.8536C59.9648 36.5515 59.9981 36.2614 60.0646 35.9925C60.131 35.7206 60.264 35.4396 60.4604 35.1525C60.6568 34.8625 60.9105 34.6147 61.2248 34.4063C61.539 34.1978 61.962 34.0256 62.4968 33.8926C63.0316 33.7597 63.6479 33.6902 64.3459 33.6902H64.6692C65.3883 33.6902 66.0228 33.7476 66.5666 33.8654C67.1105 33.9833 67.5335 34.1253 67.8296 34.2945C68.1257 34.4637 68.3674 34.6661 68.5517 34.9048C68.736 35.1435 68.8568 35.358 68.9142 35.5483C68.9686 35.7387 68.9989 35.9411 69.0049 36.1526V36.1617H66.5455C66.5334 36.1103 66.5153 36.059 66.4911 36.0106C66.4669 35.9623 66.4095 35.8958 66.3219 35.8082C66.2343 35.7206 66.1225 35.6481 65.9926 35.5906C65.8626 35.5302 65.6693 35.4758 65.4155 35.4275C65.1617 35.3792 64.8686 35.355 64.5423 35.355C63.1192 35.355 62.4092 35.8807 62.4092 36.9352V37.0288C62.4092 37.482 62.5844 37.8627 62.9319 38.174C63.2793 38.4852 63.8111 38.6423 64.5272 38.6423C64.8323 38.6423 65.1073 38.6211 65.3581 38.5788C65.6058 38.5365 65.8082 38.4821 65.9593 38.4187C66.1104 38.3552 66.2433 38.2857 66.3491 38.2132C66.4578 38.1377 66.5304 38.0712 66.5727 38.0078C66.615 37.9443 66.6361 37.8899 66.6361 37.8446H64.4698V36.5998H69.0472V40.1953H67.5607C67.4942 39.8569 67.3975 39.5638 67.2706 39.31C66.6845 39.9808 65.7025 40.3131 64.3308 40.3131L64.3278 40.3161Z" fill="white"/>
<path d="M69.8027 33.8079H72.1625V38.3641H76.4468V40.1921H69.8027V33.8079Z" fill="white"/>
<path d="M81.1631 33.6899H81.5378C82.0846 33.6899 82.5862 33.7292 83.0364 33.8048C83.4866 33.8833 83.8673 33.983 84.1755 34.1039C84.4836 34.2278 84.7526 34.3788 84.9822 34.5601C85.2118 34.7414 85.3931 34.9227 85.526 35.104C85.659 35.2883 85.7647 35.4877 85.8463 35.7052C85.9279 35.9228 85.9792 36.1191 86.0034 36.2974C86.0276 36.4757 86.0397 36.66 86.0397 36.8564V37.1132C86.0397 37.3066 86.0276 37.4939 86.0034 37.6722C85.9792 37.8504 85.9249 38.0498 85.8463 38.2674C85.7647 38.4879 85.662 38.6904 85.5321 38.8777C85.4022 39.065 85.2209 39.2493 84.9882 39.4306C84.7556 39.6149 84.4867 39.769 84.1815 39.8929C83.8763 40.0168 83.4987 40.1195 83.0485 40.198C82.5983 40.2766 82.0937 40.3129 81.5408 40.3129H81.1661C80.6132 40.3129 80.1086 40.2736 79.6585 40.198C79.2083 40.1195 78.8276 40.0198 78.5194 39.8929C78.2112 39.766 77.9423 39.6119 77.7097 39.4306C77.477 39.2463 77.2957 39.062 77.1658 38.8777C77.0359 38.6934 76.9301 38.4879 76.8516 38.2674C76.77 38.0468 76.7186 37.8474 76.6945 37.6722C76.6703 37.4939 76.6582 37.3096 76.6582 37.1132V36.8564C76.6582 36.663 76.6703 36.4757 76.6945 36.2974C76.7186 36.1191 76.773 35.9228 76.8516 35.7052C76.9332 35.4877 77.0359 35.2883 77.1658 35.104C77.2957 34.9197 77.477 34.7384 77.7097 34.5601C77.9423 34.3788 78.2112 34.2278 78.5194 34.1039C78.8276 33.98 79.2052 33.8803 79.6585 33.8048C80.1086 33.7262 80.6132 33.6899 81.1661 33.6899H81.1631ZM83.5984 37.0346V36.9138C83.5984 36.7265 83.5651 36.5482 83.4987 36.385C83.4322 36.2219 83.3204 36.0617 83.1633 35.9077C83.0062 35.7536 82.7705 35.6297 82.4623 35.539C82.1541 35.4484 81.7825 35.4031 81.3504 35.4031C80.9184 35.4031 80.5316 35.4484 80.2204 35.539C79.9092 35.6297 79.6766 35.7536 79.5225 35.9077C79.3684 36.0617 79.2566 36.2219 79.1932 36.385C79.1297 36.5482 79.0965 36.7234 79.0965 36.9138V37.0165C79.0965 37.2038 79.1297 37.3851 79.1962 37.5543C79.2627 37.7235 79.3744 37.8897 79.5285 38.0528C79.6826 38.216 79.9183 38.3459 80.2295 38.4426C80.5407 38.5393 80.9154 38.5876 81.3474 38.5876C81.7795 38.5876 82.1511 38.5393 82.4653 38.4456C82.7796 38.352 83.0122 38.2251 83.1663 38.0649C83.3204 37.9048 83.4322 37.7416 83.4987 37.5724C83.5651 37.4032 83.5984 37.225 83.5984 37.0377V37.0346Z" fill="white"/>
<path d="M88.9886 38.0046V40.1921H86.6289V33.8079H92.2427C93.977 33.8079 94.8411 34.3547 94.8411 35.4485V35.5421C94.8411 35.7597 94.7988 35.9561 94.7172 36.1343C94.6356 36.3126 94.5238 36.4546 94.3879 36.5634C94.2519 36.6722 94.119 36.7568 93.989 36.8202C93.8591 36.8837 93.7262 36.932 93.5932 36.9652C93.986 37.0559 94.2972 37.2341 94.5238 37.494C94.7504 37.7538 94.8653 38.0862 94.8653 38.485V39.4277C94.8653 39.76 94.9045 39.9987 94.9801 40.1498V40.1921H92.572C92.5206 40.1347 92.4965 40.0229 92.4965 39.8567V39.1104C92.4965 38.7328 92.3998 38.4548 92.2095 38.2735C92.0191 38.0922 91.6958 38.0016 91.2426 38.0016H88.9826L88.9886 38.0046ZM88.9886 35.3639V36.4637H91.6958C92.1732 36.4637 92.4089 36.2794 92.4089 35.9138V35.9047C92.4089 35.5452 92.1702 35.3639 91.6958 35.3639H88.9886Z" fill="white"/>
<path d="M97.8985 40.1953V37.7933L94.5176 33.811H97.3426L99.1434 36.0167L100.98 33.811H103.564L100.258 37.8114V40.1983H97.8985V40.1953Z" fill="white"/>
<path d="M108.945 38.1951H106.153V40.1953H103.793V33.811H108.942C110.897 33.811 111.873 34.515 111.873 35.923V36.059C111.873 37.4851 110.897 38.1951 108.942 38.1951H108.945ZM106.156 35.4063V36.5998H108.664C109.184 36.5998 109.443 36.4064 109.443 36.0167V35.9925C109.443 35.6027 109.184 35.4094 108.664 35.4094H106.156V35.4063Z" fill="white"/>
<path d="M112.41 40.1953V33.811H114.77V36.068H118.631V33.811H120.982V40.1953H118.631V37.7661H114.77V40.1953H112.41Z" fill="white"/>
<path d="M126.079 33.6899H126.454C127.001 33.6899 127.502 33.7292 127.953 33.8048C128.403 33.8833 128.784 33.983 129.092 34.1039C129.4 34.2278 129.669 34.3788 129.898 34.5601C130.128 34.7414 130.309 34.9227 130.442 35.104C130.575 35.2883 130.681 35.4877 130.763 35.7052C130.844 35.9228 130.896 36.1191 130.92 36.2974C130.944 36.4757 130.956 36.66 130.956 36.8564V37.1132C130.956 37.3066 130.944 37.4939 130.92 37.6722C130.896 37.8504 130.841 38.0498 130.763 38.2674C130.681 38.4879 130.578 38.6904 130.448 38.8777C130.318 39.065 130.137 39.2493 129.904 39.4306C129.672 39.6149 129.403 39.769 129.098 39.8929C128.793 40.0168 128.415 40.1195 127.965 40.198C127.515 40.2766 127.01 40.3129 126.457 40.3129H126.082C125.529 40.3129 125.025 40.2736 124.575 40.198C124.125 40.1195 123.744 40.0198 123.436 39.8929C123.127 39.766 122.859 39.6119 122.626 39.4306C122.393 39.2493 122.212 39.062 122.082 38.8777C121.952 38.6904 121.846 38.4879 121.768 38.2674C121.686 38.0468 121.635 37.8474 121.611 37.6722C121.587 37.4939 121.574 37.3096 121.574 37.1132V36.8564C121.574 36.663 121.587 36.4757 121.611 36.2974C121.635 36.1191 121.689 35.9228 121.768 35.7052C121.849 35.4877 121.952 35.2883 122.082 35.104C122.212 34.9197 122.393 34.7384 122.626 34.5601C122.859 34.3818 123.127 34.2278 123.436 34.1039C123.744 33.98 124.122 33.8803 124.575 33.8048C125.025 33.7262 125.529 33.6899 126.082 33.6899H126.079ZM128.515 37.0346V36.9138C128.515 36.7265 128.481 36.5482 128.415 36.385C128.348 36.2219 128.237 36.0617 128.08 35.9077C127.922 35.7536 127.687 35.6297 127.379 35.539C127.07 35.4484 126.699 35.4031 126.267 35.4031C125.835 35.4031 125.448 35.4484 125.137 35.539C124.825 35.6297 124.593 35.7536 124.439 35.9077C124.285 36.0617 124.173 36.2219 124.109 36.385C124.046 36.5482 124.013 36.7234 124.013 36.9138V37.0165C124.013 37.2038 124.046 37.3851 124.112 37.5543C124.179 37.7235 124.291 37.8897 124.445 38.0528C124.599 38.216 124.835 38.3459 125.146 38.4426C125.46 38.5393 125.832 38.5876 126.264 38.5876C126.696 38.5876 127.067 38.5393 127.382 38.4456C127.696 38.352 127.928 38.2251 128.083 38.0649C128.237 37.9048 128.348 37.7416 128.415 37.5724C128.481 37.4032 128.515 37.225 128.515 37.0377V37.0346Z" fill="white"/>
<path d="M131.545 33.8079H134.186L137.775 37.4396V33.8079H140.117V40.1921H137.757L133.887 36.3217V40.1921H131.545V33.8079Z" fill="white"/>
<path d="M143.265 33.8079V40.1921H140.914V33.8079H143.265Z" fill="white"/>
<path d="M148.547 40.3158H148.223C147.498 40.3158 146.864 40.2403 146.317 40.0922C145.77 39.9442 145.347 39.7599 145.042 39.5393C144.737 39.3187 144.492 39.0559 144.302 38.7537C144.114 38.4516 143.99 38.1706 143.936 37.9138C143.882 37.657 143.851 37.3881 143.851 37.1071V36.8593C143.851 36.5723 143.879 36.3034 143.93 36.0526C143.981 35.8018 144.099 35.5238 144.283 35.2247C144.468 34.9256 144.709 34.6658 145.012 34.4512C145.314 34.2367 145.74 34.0554 146.29 33.9104C146.839 33.7654 147.483 33.6929 148.22 33.6929H148.544C149.06 33.6929 149.532 33.7261 149.961 33.7956C150.39 33.8651 150.749 33.9527 151.039 34.0615C151.329 34.1703 151.586 34.3002 151.813 34.4512C152.036 34.6023 152.212 34.7564 152.341 34.9105C152.468 35.0646 152.574 35.2308 152.653 35.403C152.731 35.5752 152.786 35.7323 152.81 35.8713C152.834 36.0073 152.846 36.1432 152.846 36.2732V36.3849H150.396C150.208 35.7323 149.529 35.406 148.359 35.406C146.981 35.406 146.293 35.9045 146.293 36.8986V37.0013C146.293 37.1886 146.326 37.3699 146.389 37.5421C146.453 37.7144 146.558 37.8836 146.704 38.0497C146.852 38.2159 147.066 38.3458 147.35 38.4455C147.634 38.5422 147.976 38.5906 148.368 38.5906C148.713 38.5906 149.012 38.5573 149.275 38.4909C149.535 38.4244 149.731 38.3519 149.864 38.2733C149.997 38.1948 150.109 38.092 150.196 37.9742C150.284 37.8533 150.338 37.7688 150.353 37.7174C150.368 37.666 150.387 37.6086 150.405 37.5452H152.846V37.6811C152.846 37.8745 152.819 38.0739 152.764 38.2763C152.71 38.4788 152.586 38.7084 152.399 38.9622C152.212 39.216 151.97 39.4396 151.671 39.633C151.375 39.8233 150.958 39.9865 150.417 40.1164C149.876 40.2493 149.254 40.3128 148.544 40.3128L148.547 40.3158Z" fill="white"/>
<path d="M64.3094 39.3345L63.4543 40.1895C63.6084 40.3013 63.826 40.4947 64.0073 40.7938C64.2429 41.1836 64.3003 41.5673 64.3094 41.8181C64.3185 41.5673 64.3759 41.1836 64.6115 40.7938C64.7928 40.4947 65.0104 40.3013 65.1645 40.1895L64.3094 39.3345Z" fill="#F2F2F2"/>
<path d="M46.6341 51.3686C49.5543 51.3686 51.9216 49.0013 51.9216 46.0812C51.9216 43.161 49.5543 40.7937 46.6341 40.7937C43.714 40.7937 41.3467 43.161 41.3467 46.0812C41.3467 49.0013 43.714 51.3686 46.6341 51.3686Z" fill="white"/>
</svg>
