<svg width="165" height="165" viewBox="0 0 165 165" fill="none" xmlns="http://www.w3.org/2000/svg">
<g clip-path="url(#clip0_1124_749)">
<path d="M36.3152 1.77236C30.9527 2.73486 26.5374 7.19597 25.5902 12.6043C24.8263 17.0043 26.186 21.2974 29.3332 24.4446C34.6041 29.7154 43.0068 29.7154 48.2777 24.4446C53.5485 19.1737 53.5485 10.771 48.2777 5.50014C45.1304 2.33764 40.7304 0.977913 36.3152 1.77236ZM41.7846 3.42236C44.0457 4.03347 46.4749 5.57652 47.9263 7.31819C48.8888 8.4793 49.9888 10.6335 50.3707 12.0696C50.7374 13.4446 50.7374 16.5154 50.3707 17.8751C49.4541 21.2821 47.1777 24.0626 44.0763 25.6057C42.1054 26.5682 41.0818 26.8126 38.8054 26.8126C36.5291 26.8126 35.5054 26.5682 33.5346 25.6057C30.4332 24.0626 28.1568 21.2821 27.2402 17.8751C26.8735 16.5154 26.8735 13.4293 27.2402 12.0696C28.4471 7.59319 31.961 4.24736 36.5138 3.28486C37.7513 3.00986 40.5166 3.08625 41.7846 3.42236Z" fill="white"/>
<path d="M36.7429 5.40845C33.5804 6.14178 31.1971 8.00567 29.8526 10.8015C27.3165 16.0571 30.0359 22.3821 35.6429 24.2307C36.7276 24.5973 37.1401 24.6584 38.729 24.6584C40.3179 24.6584 40.7304 24.5973 41.8151 24.2307C44.7637 23.2682 46.9943 21.0529 48.0943 17.9973C48.4457 17.0196 48.4915 16.6529 48.4915 14.9723C48.4915 13.2918 48.4457 12.9251 48.0943 11.9473C46.6429 7.92928 43.2971 5.439 39.111 5.25567C38.1943 5.22511 37.3235 5.27095 36.7429 5.40845ZM40.6082 6.9515C43.3276 7.59317 45.5123 9.51817 46.5512 12.1612C46.9179 13.0932 46.9637 13.4293 46.9637 14.9723C46.9637 16.5154 46.9179 16.8515 46.5512 17.7834C45.5123 20.4265 43.3276 22.3515 40.6082 22.9932C37.354 23.7571 33.8554 22.4279 31.9457 19.6932C30.8151 18.1043 30.479 16.9584 30.4943 14.8959C30.4943 13.4446 30.5554 13.0626 30.9068 12.1612C32.4498 8.21956 36.5748 6.00428 40.6082 6.9515Z" fill="white"/>
<path d="M38.4542 7.88303C38.3931 7.94414 38.3473 8.35664 38.3473 8.78442V9.56359L37.5376 9.82331C37.0487 9.97609 36.5292 10.2816 36.2084 10.6178C35.7653 11.0761 35.6889 11.2747 35.6278 12.0386C35.582 12.6803 35.6431 13.0775 35.8112 13.4289C36.132 14.0247 37.1556 14.7886 37.8278 14.9108L38.3473 15.0025V17.065V19.1122L38.0112 19.0053C37.3389 18.8066 36.8959 18.5164 36.3917 17.9511C35.9334 17.4164 35.8723 17.4011 35.5667 17.5997C35.0626 17.9358 35.0778 18.058 35.6889 18.7608C36.2695 19.4483 37.0181 19.9066 37.8431 20.0747C38.2556 20.1664 38.332 20.258 38.3778 20.6705C38.4084 21.083 38.4848 21.1594 38.8056 21.1594C39.1264 21.1594 39.2028 21.083 39.2334 20.6705C39.2792 20.2428 39.3403 20.1816 39.8751 20.09C40.7459 19.9372 41.7542 19.2344 42.0903 18.5469C42.4264 17.8289 42.4417 16.5761 42.1209 15.9344C41.7542 15.2469 40.8528 14.5594 39.9973 14.3455L39.2639 14.1469V12.4205C39.2639 11.2747 39.3251 10.6941 39.432 10.6941C39.7987 10.6941 40.6084 11.1983 40.9292 11.6108C41.2959 12.115 41.9528 12.2372 42.1209 11.8247C42.3501 11.2289 41.1278 10.0525 39.9209 9.73164L39.2792 9.56359L39.2334 8.72331C39.1876 7.98998 39.1417 7.86775 38.882 7.82192C38.6987 7.79137 38.5153 7.82192 38.4542 7.88303ZM38.3473 12.2983C38.3473 14.0858 38.3014 14.1469 37.4153 13.5511C36.3917 12.8636 36.4834 11.5039 37.5834 10.9691C37.8737 10.8164 38.1639 10.6941 38.2403 10.6941C38.3014 10.6941 38.3473 11.4122 38.3473 12.2983ZM40.3028 15.583C41.2348 16.1483 41.5098 17.6303 40.8376 18.3636C40.5167 18.7303 39.8292 19.0969 39.4931 19.0969C39.2945 19.0969 39.2639 18.8066 39.2639 17.1872C39.2639 15.0483 39.3098 14.9719 40.3028 15.583Z" fill="white"/>
<path d="M97.4722 23.5432C85.7083 24.8723 76.1291 33.8404 73.9138 45.6043C73.6388 47.1168 73.5777 47.9723 73.5777 50.4168C73.5777 53.9001 73.8833 55.9168 74.8458 58.8195C75.1819 59.7821 75.4263 60.5918 75.3958 60.6223C75.3805 60.6529 74.5555 59.6751 73.5777 58.4682C71.393 55.7793 70.6749 55.2598 68.9638 55.1834C67.4972 55.107 66.5499 55.4279 65.3888 56.3904C64.1513 57.4293 63.5555 58.6209 63.5555 60.0418C63.5555 61.6154 63.8458 62.2265 65.7097 64.5182C66.6263 65.664 67.3749 66.6418 67.3749 66.6876C67.3749 66.7334 67.2833 66.764 67.1763 66.764C67.0541 66.764 66.5499 66.9779 66.0305 67.2376C64.4569 68.0168 63.0972 69.8195 63.0972 71.1487C63.0972 71.714 62.4555 71.607 61.8597 70.9348C58.2999 66.8557 55.4277 57.7959 54.8624 48.7362C54.7708 47.4376 54.6333 46.0168 54.5263 45.589C54.3583 44.8404 54.3583 44.7945 54.8166 44.1834C55.4124 43.3432 55.6722 42.2584 55.5805 40.8682C55.4124 38.2098 53.6555 36.5293 50.8902 36.3918L49.5916 36.3154L45.8486 33.8709C41.693 31.1515 40.9138 30.7848 39.493 30.907C37.2319 31.0751 35.1694 33.1682 34.8791 35.582L34.7874 36.3459L27.5916 36.3918L20.3958 36.4376L19.6472 36.8043C18.7152 37.2626 17.8597 38.1334 17.3861 39.0807C17.0958 39.6918 17.0347 40.0432 17.0347 41.3265C17.0347 42.6098 17.0958 42.9612 17.3861 43.5723C17.8597 44.5195 18.7152 45.3904 19.6472 45.8487C20.3958 46.2154 20.4111 46.2154 26.2472 46.2612C31.6708 46.307 32.0986 46.3223 32.0222 46.5668C31.6249 47.9265 31.5027 52.7695 31.7777 55.6265C33.168 69.3765 38.8666 83.7376 46.9944 93.989C48.7666 96.2348 52.968 100.467 55.0152 102.101C56.7874 103.492 59.4611 105.264 61.3708 106.272L62.7916 107.021V131.236C62.7916 157.743 62.7611 156.536 63.7083 158.446C65.3583 161.792 68.5819 164.038 72.7833 164.771C73.9749 164.97 77.4736 165 101.062 165C130.319 165 129.25 165.031 131.74 164.16C135.483 162.861 138.401 159.821 139.119 156.475C139.455 154.886 139.44 97.7473 139.104 95.639C137.851 87.9084 131.817 81.4001 123.2 78.5432C119.472 77.2904 117.043 77.0001 110.474 77.0001L105.799 76.9848L107.174 76.6182C117.501 73.9293 125.171 65.7098 127.142 55.2293C127.63 52.6015 127.63 48.232 127.142 45.6043C124.499 31.564 111.574 21.9543 97.4722 23.5432ZM103.644 25.8959C109.389 26.6598 114.247 29.1043 118.265 33.2446C120.358 35.4293 121.672 37.3084 122.894 39.8904C126.683 47.8654 125.828 57.5209 120.74 64.6709C119.472 66.4432 117.043 68.9029 115.225 70.2779C110.199 74.0515 103.644 75.7779 97.4722 74.9376C95.6847 74.7084 94.2638 74.4182 94.2638 74.2959C94.2638 74.2501 94.5847 73.914 94.9666 73.5473C95.9749 72.5543 96.3263 71.6987 96.3263 70.2015C96.3111 69.239 96.2499 68.8265 95.9597 68.2459C95.4249 67.1612 94.3708 66.0765 93.3777 65.5876C92.6444 65.2209 92.3236 65.1598 91.2847 65.1751C89.7263 65.1751 89.4208 65.3279 86.7166 67.5126C85.5708 68.4445 84.5777 69.2084 84.5013 69.2084C84.2874 69.2084 81.4763 66.214 80.6361 65.0834C78.3444 61.982 76.8624 58.514 76.1291 54.5418C75.7166 52.3265 75.7624 48.1251 76.2055 45.864C77.0152 41.8307 78.5888 38.3626 81.0486 35.2154C82.1333 33.8251 84.2722 31.7168 85.6319 30.6779C90.7347 26.8126 97.3347 25.0557 103.644 25.8959ZM40.6847 33.3668C40.9597 33.4737 42.1361 34.1918 43.3124 34.9709L45.4513 36.3612H41.2958H37.1249V35.9334C37.1249 35.4598 37.5986 34.482 38.1027 33.9321C38.7597 33.1987 39.768 32.9695 40.6847 33.3668ZM52.1888 39.0501C53.0444 39.6765 53.243 40.1043 53.243 41.3265C53.243 42.5487 53.0444 42.9765 52.1888 43.6029C51.7763 43.9237 51.6847 43.9237 36.2847 43.9237C20.8847 43.9237 20.793 43.9237 20.3805 43.6029C19.7083 43.114 19.3722 42.564 19.2958 41.8154C19.1736 40.8376 19.3416 40.1195 19.8152 39.5543C20.6097 38.6223 19.7541 38.6529 36.468 38.6987C51.6541 38.7293 51.7763 38.7293 52.1888 39.0501ZM52.4027 46.3223C52.4027 46.4293 52.4791 47.514 52.5555 48.7362C53.1666 57.5973 55.5194 65.7709 58.8958 70.7209C59.3541 71.4084 59.7361 72.0195 59.7361 72.0807C59.7361 72.1418 59.4611 72.4168 59.1249 72.6612C57.6888 73.7612 57.0624 75.1057 57.1694 76.8168C57.2152 77.5043 57.3527 78.0695 57.5972 78.5584C57.9333 79.1848 66.3666 89.7418 68.9638 92.7821C70.0027 94.0043 70.9958 94.5543 72.4166 94.6765L73.3027 94.7682L74.0513 95.8529C75.0291 97.289 78.1763 100.421 80.4374 102.178C88.7638 108.671 99.9624 113.926 110.458 116.249C119.197 118.189 127.157 118.235 134.597 116.386C135.651 116.126 136.629 115.851 136.782 115.775C137.026 115.653 137.042 116.631 137.026 135.545C137.026 153.847 136.996 155.528 136.767 156.46C136.018 159.332 133.222 161.838 129.785 162.708C128.608 163.014 128.135 163.014 101.062 163.014C73.9902 163.014 73.5166 163.014 72.3402 162.708C69.7736 162.052 67.3597 160.356 66.1527 158.339C65.0222 156.475 65.0986 158.507 65.0986 129.021C65.0833 105.035 65.068 102.545 64.8388 102.239C64.5027 101.75 63.9527 101.567 63.4486 101.765C62.868 101.979 62.7916 102.147 62.7916 103.308C62.7916 103.889 62.7458 104.347 62.6847 104.347C62.4861 104.347 60.5458 103.217 59.1402 102.27C54.8777 99.4279 50.4624 95.0432 47.0708 90.3223C40.2263 80.7432 35.3986 68.0015 34.1458 56.1307C33.7944 52.8154 33.8555 48.8584 34.3138 46.7195L34.4055 46.2918L43.1291 46.2459C47.9416 46.2307 51.9902 46.2001 52.143 46.1695C52.2805 46.1543 52.4027 46.2307 52.4027 46.3223ZM69.7124 57.6737C70.0486 57.8418 72.9361 61.2945 78.6041 68.2918C83.218 74.0057 87.0833 78.8334 87.1902 79.0168C87.4499 79.4904 87.4347 80.5904 87.1597 81.1251C87.0374 81.3543 86.6097 81.8279 86.2277 82.1487C85.5861 82.6682 85.418 82.7293 84.5472 82.7598C83.6611 82.7904 83.493 82.8515 82.7138 83.4321C81.843 84.1043 81.4305 84.6848 81.4305 85.2654C81.4305 85.8001 80.8652 86.564 80.1013 87.0682C79.5208 87.4654 79.2305 87.5418 78.5124 87.5418C77.7027 87.5418 77.5805 87.5876 76.7402 88.2598C75.6555 89.1307 75.6555 89.1307 75.5333 89.9709C75.3499 91.132 73.868 92.4154 72.6916 92.4307C71.6527 92.4307 71.3319 92.0946 65.8013 85.2807C62.8374 81.6445 60.1944 78.3598 59.9347 77.9779C58.9111 76.557 59.4611 74.9223 61.2486 74.0209C61.8902 73.7001 62.9597 73.7765 63.5402 74.2043C63.7541 74.3723 65.2819 76.1598 66.9166 78.1765L69.8958 81.8432L70.7361 81.1404C71.1944 80.7584 71.6069 80.4376 71.6222 80.4223C71.6527 80.4071 70.5222 78.9557 69.0861 77.1987C65.2513 72.4779 65.3888 72.6765 65.3888 71.7751C65.3888 69.682 67.9708 68.2459 69.5597 69.4529C69.7736 69.6057 71.2708 71.3779 72.8749 73.364L75.8083 77.0001L76.7097 76.2821C77.5041 75.6557 77.5958 75.5487 77.3972 75.3348C76.4194 74.189 66.1527 61.4168 66.0305 61.1571C65.7402 60.6223 65.8013 59.4459 66.1527 58.8807C66.3361 58.6057 66.7944 58.1779 67.1763 57.9182C67.9861 57.3834 68.918 57.2918 69.7124 57.6737ZM92.7055 67.7876C93.9583 68.7043 94.4472 70.3543 93.7749 71.3473C93.4541 71.8209 88.2291 76.2515 88.0152 76.2209C87.9541 76.2209 87.1902 75.3043 86.2888 74.1737L84.6541 72.1418L87.3277 69.9723C88.7944 68.7807 90.1847 67.7112 90.4138 67.589C90.9638 67.2834 92.1861 67.3904 92.7055 67.7876ZM93.8819 76.6182L95.2569 76.9848H93.0416H90.8263L91.3611 76.5265C91.7277 76.2209 91.9874 76.0987 92.2013 76.1598C92.3694 76.2057 93.1333 76.4195 93.8819 76.6182ZM119.319 79.4751C122.299 80.1626 125.507 81.4307 127.615 82.7598L128.226 83.1418L127.478 83.814C122.344 88.3973 118.067 90.6432 114.049 90.857C108.854 91.1473 102.193 88.5654 94.9208 83.4626C92.7819 81.9654 89.6958 79.4293 89.6805 79.1695C89.6805 79.0168 92.3083 78.9862 103.629 79.0321L117.562 79.0779L119.319 79.4751ZM91.2999 83.6154C96.4027 87.664 103.125 91.2237 107.937 92.4307C115.546 94.3557 121.199 92.507 128.975 85.5251L130.136 84.4709L131.419 85.7543C132.122 86.457 133.069 87.5112 133.512 88.0918C134.612 89.5432 136.033 92.4765 136.537 94.3404L136.95 95.8682L137.011 104.592L137.057 113.3L135.712 113.713C133.696 114.324 132.718 114.538 130.625 114.889C119.64 116.692 106.44 114.156 93.7291 107.815C86.4111 104.179 78.9861 98.6945 76.1749 94.8751L75.4569 93.9126L76.2208 93.1793C77.0763 92.3696 77.5805 91.4834 77.7333 90.5515L77.8555 89.9098L79.0013 89.8182C80.2999 89.7112 80.8652 89.4668 82.0111 88.5043C82.8819 87.7709 83.5083 86.7168 83.6611 85.739L83.7527 85.1432L84.8069 85.0668C86.4569 84.9445 88.1986 83.8751 89.0236 82.4848C89.2527 82.1182 89.3291 82.0723 89.543 82.2404C89.6805 82.332 90.4749 82.9584 91.2999 83.6154Z" fill="white"/>
</g>
<defs>
<clipPath id="clip0_1124_749">
<rect width="165" height="165" fill="white"/>
</clipPath>
</defs>
</svg>
