<svg width="150" height="150" viewBox="0 0 150 150" fill="none" xmlns="http://www.w3.org/2000/svg">
<path d="M69.6527 0.0834351C69.4305 0.111221 68.4861 0.236221 67.5694 0.361221C57.25 1.75011 47.7361 7.81955 42.4999 16.3612L41.7361 17.5973L40.9861 17.6945C40.5694 17.7501 39.9583 17.9029 39.6388 18.0557C38.7777 18.4307 37.7083 19.4862 37.2638 20.4029L36.8749 21.1807V30.6945V40.2084L37.2638 40.9862C37.7083 41.9168 38.7777 42.9584 39.6944 43.3751C40.2777 43.6529 40.5833 43.6807 42.5694 43.6807C44.5555 43.6807 44.8611 43.6529 45.4444 43.3751C46.3611 42.9584 47.4305 41.9029 47.8749 40.9862C48.2361 40.2362 48.2638 40.0973 48.3333 37.4307C48.3888 35.2918 48.4305 34.8334 48.5138 35.4168C48.6944 36.6807 49.4027 39.1807 49.9861 40.5973C52.7777 47.4445 58.6111 52.7501 65.5555 54.7918L66.5972 55.0973L63.2638 55.1807C61.0694 55.2223 59.5 55.3195 58.6805 55.4723C52.2222 56.6529 47.0138 59.764 42.8194 64.9307C42.4999 65.3334 42.3749 65.4168 42.3611 65.2362C42.3472 64.6112 41.5138 63.3473 40.6527 62.6807L40.2638 62.3751L40.5833 61.7779C40.8472 61.264 40.9027 60.9723 40.9027 59.7918C40.9027 58.6251 40.8472 58.3057 40.5833 57.7779C40.2638 57.1112 39.7638 56.514 39.1388 56.0279L38.7638 55.7362L39.1388 55.0001C39.6527 53.9445 39.6666 52.3473 39.1527 51.2362C38.4583 49.7501 36.9722 48.6945 35.3333 48.5279C34.6805 48.4584 34.1249 48.5418 32.6388 48.889C31.6111 49.1251 30.5277 49.3334 30.2222 49.3473L29.6805 49.3751L29.2916 47.639C29.0694 46.6807 28.7222 45.1529 28.5138 44.2362C28.3194 43.3195 28.0277 42.3334 27.8888 42.0418C27.4722 41.2084 26.5694 40.3195 25.7083 39.9029C24.6666 39.4029 22.9305 39.3612 21.9166 39.8195C21.0416 40.2223 20.0555 41.1529 19.6111 42.014C18.9722 43.2779 19.0138 44.2362 19.9166 48.264C20.6527 51.5279 20.6805 51.7501 20.4583 51.9168C19.7916 52.389 19.1388 53.1668 18.7916 53.8751C18.4583 54.5418 18.4027 54.8195 18.4027 55.8334C18.4027 56.8473 18.4583 57.1251 18.7916 57.8057C19.0138 58.264 19.4722 58.8612 19.8611 59.2084L20.5416 59.8195L20.1805 60.6945C19.8749 61.4584 19.8333 61.7362 19.8888 62.6945C19.9583 63.9307 20.2361 64.6251 20.9861 65.4862C21.3472 65.9029 21.4027 66.0418 21.3333 66.4584C21.2777 66.7084 20.4583 69.6112 19.4999 72.8751C15.4861 86.639 15.3333 87.1807 15.0694 88.4723C14.7916 89.8196 14.8472 90.7501 15.2777 92.4307C15.8611 94.7362 17.3333 97.0001 19.0694 98.2918C20.5694 99.389 21.9027 99.9584 24.3472 100.542C25.1388 100.722 27.2916 100.75 27.8611 100.57C28.0833 100.5 28.7361 100.333 29.3055 100.208C32.2638 99.5418 35.1249 97.4168 36.8611 94.5973L37.4999 93.5557L37.5277 117.861L37.5694 142.153L37.9444 143.264C38.4722 144.82 39.2083 146 40.3611 147.139C41.4999 148.292 42.6805 149.028 44.2361 149.556L45.3472 149.931H72.7777H100.208L101.319 149.556C102.875 149.028 104.056 148.292 105.194 147.139C106.347 146 107.083 144.82 107.611 143.264L107.986 142.153L108.056 117.361C108.125 93.1946 108.125 92.5834 108.375 93.1946C109.125 95.0279 110.986 97.2779 112.75 98.4584C113.944 99.264 115.417 99.9168 116.681 100.208C117.25 100.333 117.889 100.5 118.111 100.57C118.736 100.764 120.861 100.722 121.833 100.486C125.083 99.7084 127.014 98.5973 128.639 96.5557C129.917 94.9446 130.528 93.5418 130.903 91.389C131.25 89.3751 131.194 89.1251 128.681 80.4862C125.083 68.1529 124.583 66.4168 124.583 66.1668C124.583 66.0418 124.778 65.7223 125.014 65.4445C125.792 64.5557 126.042 63.8334 126.042 62.4307C126.042 61.4307 125.972 61.0418 125.736 60.514L125.431 59.8473L126.194 59.0973C127.25 58.0695 127.556 57.3195 127.569 55.8334C127.569 54.8195 127.514 54.5418 127.181 53.8612C126.944 53.389 126.486 52.7918 126.042 52.3751L125.278 51.6945L126.056 48.2362C126.931 44.3195 126.986 43.2501 126.403 42.1112C125.931 41.1945 125.069 40.3334 124.181 39.9029C123.514 39.5695 123.236 39.514 122.222 39.514C121.319 39.5279 120.889 39.5973 120.389 39.8195C119.528 40.2084 118.528 41.1529 118.139 41.9445C117.819 42.5834 117.736 42.889 116.875 46.7362C116.194 49.764 116.319 49.4862 115.639 49.389C115.333 49.3334 114.264 49.0973 113.264 48.8751C111.847 48.5418 111.278 48.4584 110.639 48.5279C108.972 48.6945 107.542 49.7084 106.819 51.2362C106.208 52.5557 106.333 54.264 107.181 55.6945C107.208 55.7362 107 55.9168 106.722 56.1112C106.444 56.2918 106 56.764 105.75 57.1529C104.847 58.5279 104.694 60.1807 105.361 61.6529C105.542 62.0695 105.681 62.4168 105.667 62.4307C104.611 63.1251 104.028 63.9168 103.611 65.1668L103.389 65.8473L102.958 65.2501C101.097 62.6668 97.875 59.9029 94.7083 58.1529C93.4166 57.4445 90.9861 56.4723 89.4444 56.0557C86.9305 55.389 85.8194 55.2501 82.0833 55.1668L78.5416 55.0973L79.5833 54.7918C84.7638 53.2779 89.5138 49.8057 92.625 45.2779C100.333 34.0557 97.4166 18.8057 86.1111 11.2223C85.3055 10.6807 84.625 10.2223 84.5972 10.1945C84.5694 10.1668 85.1805 10.389 85.9722 10.6945C90.0833 12.3057 94.3055 15.1112 97.3888 18.3057L98.4722 19.4168L98.0138 20.2779L97.5694 21.1529V30.6807C97.5694 40.1807 97.5694 40.2084 97.875 40.8612C98.2916 41.7779 99.3333 42.8473 100.264 43.2918C101.014 43.6668 101.125 43.6807 103.264 43.6807C105.403 43.6807 105.514 43.6668 106.264 43.2918C107.194 42.8473 108.236 41.7779 108.653 40.8612C108.958 40.2084 108.958 40.1807 108.958 30.6945C108.958 21.2084 108.958 21.1807 108.653 20.5279C107.986 19.0834 106.417 17.889 104.931 17.6945C104.25 17.6112 104.222 17.5834 103.75 16.7779C102.472 14.5557 100.25 11.764 98.2222 9.86122C92.9305 4.84734 86.3194 1.62511 78.7777 0.402878C77.4166 0.180664 76.2361 0.0973358 73.5416 0.0695496C71.6388 0.0417786 69.8888 0.0556641 69.6527 0.0834351ZM77.2916 2.63899C87.0833 3.94455 95.3888 8.83344 100.542 16.3057C101 16.9862 101.389 17.5834 101.389 17.639C101.389 17.6945 101.181 17.7918 100.917 17.8334C100.458 17.9168 100.389 17.8751 98.8611 16.3473C94.0694 11.5418 88.0416 8.23622 81.3194 6.73622C78.0972 6.01399 76 5.77788 72.9861 5.77788C69.9722 5.77788 67.8611 6.01399 64.6527 6.73622C57.9166 8.23622 51.8194 11.5973 47.0833 16.3751C45.5138 17.9723 45.4722 18.0001 45.0416 17.8612C44.7916 17.7918 44.5833 17.6945 44.5833 17.639C44.5833 17.5973 44.9027 17.0834 45.2916 16.514C50.2361 9.31955 57.9444 4.48622 66.9444 2.93066C67.9027 2.76399 69.2777 2.56955 70 2.50011C71.5833 2.34734 75.75 2.43066 77.2916 2.63899ZM75.4166 9.36122C80.7083 10.0695 85.0972 12.3473 88.875 16.3334C96.8194 24.7362 96.8194 38.1807 88.875 46.5834C85.0972 50.5695 80.7083 52.8473 75.4166 53.5557C64.3333 55.0279 53.75 47.8195 50.9583 36.9029C48.3888 26.8057 53.2916 16.2084 62.7083 11.5001C66.6111 9.54178 71.1111 8.79178 75.4166 9.36122ZM59.0138 11.1668C58.9861 11.1945 58.5277 11.5418 57.9861 11.9445C54.3888 14.6668 51.6805 18.1668 49.9861 22.3195C49.4027 23.7362 48.6944 26.2362 48.5138 27.5001C48.4305 28.0418 48.3888 27.2501 48.3333 24.7223C48.2638 21.1807 48.2638 21.1807 47.8749 20.389L47.4861 19.5834L47.7499 19.1945C48.5833 18.0279 51.7916 15.2779 54.0277 13.8057C55.7083 12.7084 59.5694 10.6668 59.0138 11.1668ZM44.6527 19.9862C45.3194 20.2918 45.7499 20.7362 46.0416 21.4168C46.2222 21.8612 46.2499 23.0973 46.2499 30.7223C46.2499 38.9723 46.2222 39.5418 45.9861 40.0695C45.4305 41.2918 44.6249 41.6668 42.5694 41.6668C40.5138 41.6668 39.7083 41.2918 39.1527 40.0695C38.9166 39.5418 38.8888 38.9723 38.8888 30.7223C38.8888 21.2362 38.8749 21.389 39.6249 20.5695C40.2222 19.9307 40.9027 19.7223 42.5694 19.7223C43.7638 19.7223 44.2222 19.7779 44.6527 19.9862ZM105.347 19.9862C106.014 20.2918 106.444 20.7362 106.736 21.4168C106.917 21.8612 106.944 23.0973 106.944 30.7223C106.944 38.9723 106.917 39.5418 106.681 40.0695C106.125 41.2918 105.319 41.6668 103.264 41.6668C101.208 41.6668 100.403 41.2918 99.8472 40.0695C99.6111 39.5418 99.5833 38.9723 99.5833 30.7223C99.5833 21.2362 99.5694 21.389 100.319 20.5695C100.917 19.9307 101.597 19.7223 103.264 19.7223C104.458 19.7223 104.917 19.7779 105.347 19.9862ZM24.7222 42.2084C25.4722 42.5973 25.7499 43.139 26.1666 45.0834C26.3888 46.0695 26.7083 47.5001 26.8888 48.264C27.0694 49.0279 27.2222 49.7501 27.2222 49.8751C27.2222 50.0418 26.7499 50.1945 25.1944 50.5418C24.0833 50.8057 23.1527 50.9723 23.1111 50.9445C23.0555 50.8751 22.8749 50.139 22.0138 46.2362C21.6388 44.4862 21.5694 43.9723 21.6805 43.5834C22.0555 42.2223 23.5138 41.5557 24.7222 42.2084ZM123.194 42.2084C123.458 42.3473 123.792 42.6112 123.931 42.8057C124.486 43.5418 124.458 43.9307 123.667 47.514C123.25 49.3612 122.889 50.9029 122.861 50.9445C122.792 51.0001 118.861 50.1529 118.764 50.0557C118.722 50.0279 118.847 49.3612 119.014 48.5695C119.194 47.7918 119.514 46.3195 119.736 45.3057C119.958 44.2918 120.236 43.2779 120.347 43.0557C120.542 42.6807 121.083 42.2084 121.528 42.0418C121.958 41.8751 122.736 41.9584 123.194 42.2084ZM36.0833 51.3473C36.7638 51.8612 37.0138 52.3334 37.0138 53.1251C37.0138 54.4584 36.3611 55.0279 34.2916 55.4723C31.3333 56.1251 28.2499 56.8334 27.7361 56.9584C27.1388 57.1112 27.1527 57.0001 27.5277 58.8057C27.6944 59.5973 27.0972 59.639 32.2777 58.4723C34.3194 58.014 36.2361 57.639 36.5277 57.639C37.0972 57.639 37.8055 58.0418 38.2499 58.639C38.8472 59.4584 38.4861 61.014 37.5555 61.5557C37.3194 61.6945 35.2916 62.2084 33.0416 62.7084C30.7916 63.2084 28.8888 63.639 28.8055 63.6668C28.6944 63.7084 28.7222 64.0695 28.9027 64.8612C29.0277 65.4862 29.1666 66.014 29.1944 66.0418C29.2222 66.0695 30.2083 65.8751 31.3888 65.6112C32.5694 65.3473 34.1249 65.014 34.8333 64.8612C35.5555 64.7084 36.4999 64.4862 36.9583 64.3751C37.9166 64.1251 38.7361 64.264 39.2777 64.764C40.3611 65.764 40.1944 67.5001 38.9583 68.2084C38.7222 68.3473 37.3888 68.7084 35.9722 69.0279C34.5555 69.3334 31.7222 69.9723 29.6805 70.4307C26.4722 71.139 25.8888 71.2362 25.4305 71.1112C23.8888 70.6945 23.3749 69.1668 24.1805 67.4029C24.6805 66.3057 24.4999 65.5834 23.4861 64.5973C23.1111 64.2362 22.6944 63.7223 22.5694 63.4584C22.2777 62.9168 22.2499 61.9862 22.5138 61.514C22.8472 60.9029 23.0138 59.8195 22.8749 59.1945C22.7777 58.7223 22.5694 58.4029 21.8749 57.6945C20.9166 56.7501 20.7222 56.264 20.8888 55.3473C21.0138 54.7223 21.6805 53.9445 22.2638 53.764C22.5138 53.6945 24.4583 53.2501 26.5972 52.7779C28.7361 52.3057 31.3611 51.7084 32.4305 51.4445C34.5833 50.9307 35.4999 50.9029 36.0833 51.3473ZM114.722 51.7362C116.597 52.1668 119.403 52.7918 120.972 53.139C122.583 53.4862 123.972 53.8612 124.153 54.0001C124.722 54.4168 125.028 54.9307 125.097 55.5834C125.194 56.3751 124.903 56.9445 124 57.7779C123.111 58.5973 122.833 59.4584 123.111 60.514C123.208 60.889 123.361 61.3334 123.458 61.4862C123.542 61.6529 123.611 62.0973 123.611 62.4723C123.611 63.2223 123.194 63.9445 122.208 64.8612C121.611 65.4307 121.403 66.1668 121.639 66.9445C122.292 69.0695 122.278 69.0001 122.097 69.6112C121.875 70.3473 121.306 70.9029 120.583 71.0973C120.083 71.2362 119.611 71.1668 116.292 70.4307C108.194 68.6251 107.417 68.4445 107.014 68.2084C105.194 67.1668 105.917 64.2918 108 64.2779C108.375 64.264 110.486 64.6807 112.694 65.1807C114.917 65.6945 116.736 66.0834 116.764 66.0695C116.778 66.0418 116.917 65.514 117.069 64.8751C117.25 64.0557 117.292 63.7223 117.167 63.6807C116.736 63.5557 115.458 63.264 112.292 62.5695C110.389 62.139 108.639 61.6807 108.417 61.5557C107.819 61.2084 107.444 60.5001 107.444 59.6945C107.444 58.9445 107.736 58.4584 108.472 57.9445C109.083 57.5418 109.597 57.5557 111.833 58.0557C112.847 58.2918 114.403 58.639 115.278 58.8195C116.153 59.014 117.097 59.2223 117.361 59.3057C118.25 59.5557 118.278 59.5418 118.542 58.3195C118.667 57.7084 118.736 57.1668 118.694 57.1251C118.625 57.0557 116.611 56.5834 112.569 55.6807C111.5 55.4445 110.458 55.1945 110.236 55.1112C109.736 54.9168 109.083 54.1529 108.958 53.6112C108.681 52.3473 109.708 51.0001 110.972 50.9723C111.167 50.9723 112.861 51.3195 114.722 51.7362ZM81.8055 58.0557C80.2361 59.8751 77.5416 61.6112 75.4861 62.1668C72.6388 62.9168 69.4722 62.3612 66.8055 60.639C65.8472 60.014 63.5833 57.9584 63.3194 57.4723C63.1944 57.2362 63.6111 57.2223 72.8611 57.2223H82.5277L81.8055 58.0557ZM61.6666 58.0973C62.3472 59.0973 64.4583 61.264 65.5416 62.0695C70.0694 65.4029 75.5277 65.4029 80.1111 62.0557C81.1666 61.2918 82.9583 59.4584 83.8194 58.2918C84.625 57.1945 84.6527 57.1945 87.0277 57.6529C90.2083 58.264 93.5138 59.6529 96.1111 61.5001C97.7916 62.6807 100.486 65.3751 101.694 67.0834C103.458 69.5557 104.806 72.6668 105.514 75.889L105.889 77.5695L105.931 109.347C105.986 144.347 106.042 141.972 105.125 143.778C104.528 144.958 103.125 146.389 101.958 147C100.097 147.972 102.083 147.917 72.7777 147.917C43.4861 147.917 45.4583 147.972 43.6111 147C42.4166 146.375 41.1249 145.083 40.4861 143.889C39.5138 142.014 39.5694 144.583 39.6249 109.347L39.6666 77.5695L40.0416 75.889C40.5277 73.6807 41.0833 72.1112 42.0972 70.0695C44.5277 65.1668 49.0138 61.0001 54.0416 58.9723C56.2222 58.0973 59 57.4029 60.4861 57.3751C61.1666 57.3751 61.1805 57.3751 61.6666 58.0973ZM37.4999 71.6251C37.4999 71.8473 37.4027 73.0418 37.2916 74.3057C37.1805 75.5695 36.8888 78.8751 36.6666 81.6668C35.8749 91.0001 35.8055 91.4723 34.8611 93.1251C32.8888 96.5418 28.6527 98.6529 24.9305 98.0696C22.7361 97.7362 21.1388 96.9584 19.7361 95.5418C18.1388 93.9307 17.4166 91.9446 17.5416 89.514C17.5972 88.2779 17.7499 87.639 18.8749 83.8195C19.5694 81.4445 20.3611 78.7918 20.6111 77.9168C20.8749 77.0418 21.3472 75.3751 21.6805 74.2362C21.9999 73.0834 22.2916 72.1251 22.3055 72.0973C22.3333 72.0695 22.5833 72.2501 22.8749 72.5001C23.5138 73.0695 24.5833 73.5557 25.4166 73.6807C26.0972 73.7779 26.4999 73.6945 33.2638 72.1668C35.4027 71.6807 37.2361 71.2779 37.3333 71.264C37.4305 71.2501 37.4999 71.4168 37.4999 71.6251ZM112.653 72.1668C120.167 73.8473 119.847 73.7779 120.722 73.6251C121.639 73.4723 122.431 73.0834 123.125 72.4862C123.472 72.1807 123.625 72.1112 123.681 72.2501C123.75 72.4168 124.681 75.6112 126.181 80.764C126.528 81.9862 127.167 84.1668 127.597 85.6251C128.5 88.7084 128.667 90.2084 128.278 91.8473C127.597 94.7501 125.375 96.9446 122.222 97.8473C120.889 98.2362 118.611 98.2084 117.153 97.7918C115.069 97.2084 113.153 95.9168 111.889 94.2501C110.347 92.2223 110.139 91.4029 109.667 85.9029C109.458 83.6112 109.111 79.5695 108.889 76.9168C108.486 72.1668 108.417 71.2501 108.528 71.2501C108.556 71.2501 110.417 71.6668 112.653 72.1668Z" fill="white"/>
</svg>
