<svg width="144" height="144" viewBox="0 0 144 144" fill="none" xmlns="http://www.w3.org/2000/svg">
<path d="M68.7334 3.29332C62.6134 4.09332 57.2267 6.69331 53.0001 10.88C48.0801 15.7333 45.2668 22.12 44.9734 29.0667C44.7734 34.12 46.1068 39.3333 48.7734 43.8C50.2668 46.32 52.5067 48.9467 54.6534 50.72C55.7467 51.6133 57.9734 53.12 58.9067 53.5867C59.2534 53.76 59.4667 53.9467 59.4268 54.0533C59.3867 54.1467 59.2534 54.7467 59.1201 55.3733L58.8801 56.5333H58.2668C57.2134 56.5333 54.4001 56.92 52.9334 57.28C44.6934 59.24 38.3334 64.3467 35.6134 71.1733C35.3067 71.92 35.0667 72.6267 35.0667 72.7333C35.0667 72.84 33.5334 73.9467 31.6401 75.2133C29.6134 76.56 27.8534 77.84 27.3601 78.32C21.6001 83.8933 23.2934 93.9867 30.6001 97.6C31.7067 98.1333 33.3867 98.6667 34.0267 98.6667H34.4001L34.4267 117.16L34.4667 135.667L34.8534 136.667C36.2267 140.253 39.6401 142.92 43.9067 143.747C45.1601 143.987 46.2267 144 72.3734 144C96.2401 144 99.6801 143.973 100.707 143.8C105.147 143.013 108.707 140.213 110.053 136.44L110.467 135.267L110.507 116.787L110.533 98.32L111.307 98.08C115.027 96.9067 118.093 93.4933 119.147 89.3333C119.507 87.8933 119.48 85.0133 119.08 83.5467C118.52 81.4667 117.213 79.28 115.773 78C115.427 77.6933 113.987 76.6667 112.587 75.7333L110.053 74.0267L109.88 73.2533C109.787 72.8133 109.507 71.96 109.267 71.3333C107.307 66.2133 103.2 61.96 97.7067 59.3333C93.8934 57.52 90.5734 56.72 86.2534 56.5733L84.0401 56.4933L83.8801 55.68C83.7868 55.24 83.6801 54.7333 83.6534 54.5867C83.5868 54.3467 83.7334 54.2267 84.5601 53.8C86.6134 52.7333 89.2667 50.7733 90.9601 49.04C95.3334 44.5867 98.0401 38.8667 98.6801 32.7733C98.8534 31.1333 98.7734 27.4133 98.5334 26C97.8934 22.2267 96.5468 18.6667 94.5601 15.5333C90.4134 9.01332 83.5201 4.54665 75.8267 3.41331C74.4934 3.21332 69.9201 3.13332 68.7334 3.29332ZM75.8667 5.79999C84.4801 7.21332 91.8268 13.24 94.8668 21.4C96.8268 26.64 96.9334 32.5333 95.1868 37.7733C93.2801 43.4533 89.4934 48.12 84.2801 51.2133C83.6667 51.5867 83.1201 51.84 83.0667 51.7733C82.9734 51.68 80.2801 39.8133 79.8667 37.6933C79.4401 35.5333 77.1467 33.8533 74.8667 34.0267C73.8401 34.12 72.6534 34.64 71.9734 35.3067L71.4668 35.7867L70.9734 35.3067C70.2801 34.64 69.0934 34.12 68.0667 34.0267C65.7868 33.8533 63.4934 35.5333 63.0667 37.6933C62.8267 38.9067 60.1068 51.1067 60.0134 51.3733C59.8267 51.88 56.2401 49.1867 53.9867 46.8533C52.6401 45.4533 51.9067 44.4933 50.9067 42.8667C50.0001 41.3867 49.7601 40.92 49.1601 39.4C46.9067 33.6667 46.7467 27.6667 48.6667 22.0667C50.6401 16.3733 54.6267 11.5867 59.8267 8.65332C62.4667 7.17332 65.8667 6.03999 68.8001 5.66666C70.6534 5.43999 74.0267 5.49332 75.8667 5.79999ZM69.1467 36.4133C69.4134 36.5733 69.8001 36.9467 70.0134 37.24L70.4001 37.7733V48.4133V59.04L69.9734 59.6133C69.1201 60.7067 68.0267 60.9867 65.9067 60.6133C63.6134 60.2133 60.6667 59.0533 60.5601 58.5067C60.5334 58.3867 61.5067 53.9067 62.7201 48.56C63.9334 43.2133 64.9334 38.6933 64.9334 38.52C64.9468 38.04 65.3734 37.1867 65.8401 36.76C66.6801 35.96 68.1734 35.8 69.1467 36.4133ZM76.0401 36.1467C77.0001 36.4133 77.9867 37.6133 78.0001 38.5333C78.0001 38.7067 79.0001 43.2267 80.2134 48.5733C81.4268 53.9067 82.4001 58.3867 82.3734 58.5067C82.2668 59.0533 79.3334 60.2133 77.0267 60.6133C74.9067 60.9867 73.8134 60.7067 72.9734 59.6133L72.5334 59.04V48.4133V37.7733L72.9201 37.2533C73.6934 36.1733 74.7734 35.7867 76.0401 36.1467ZM58.3601 58.8667C58.3334 59.3333 58.3334 59.3333 57.7201 59.3333C56.9201 59.3333 55.2667 59.76 54.4401 60.1733C54.0801 60.36 50.2934 62.8267 46.0134 65.6667C41.7467 68.4933 38.2134 70.8 38.2001 70.7733C38.1201 70.6933 39.4934 68.4 40.1334 67.5333C43.9334 62.3867 50.5867 59.0133 58.1601 58.4133C58.3334 58.4 58.3734 58.5067 58.3601 58.8667ZM89.3334 58.7333C92.4268 59.24 95.4668 60.2933 97.9867 61.7333C100 62.88 101.04 63.6933 102.813 65.4533C104.8 67.4533 106.213 69.56 107.08 71.8267C107.227 72.2133 108.16 72.8 97.6134 65.8C93.1201 62.8133 89.1201 60.2267 88.7334 60.0533C87.8401 59.64 86.4401 59.3333 85.4001 59.3333H84.6001L84.5734 58.84L84.5467 58.36L86.3068 58.44C87.2801 58.4933 88.6401 58.6267 89.3334 58.7333ZM71.9867 61.52C72.2267 61.7733 72.8001 62.1467 73.2534 62.36C74.0001 62.7067 74.1867 62.7333 75.5334 62.72C76.3467 62.7067 77.2534 62.64 77.5734 62.56C77.8801 62.4933 78.1334 62.4533 78.1334 62.4933C78.1334 62.5333 77.8934 62.84 77.5868 63.1733C75.6534 65.3733 74.5201 68.6667 74.7201 71.6C74.8534 73.7733 75.5067 75.5467 76.7334 77.08C77.1734 77.6267 80.2801 80.1333 88.6934 86.68C94.9334 91.5467 100.56 95.9067 101.173 96.36C103.04 97.76 104.853 98.4533 107.04 98.6267L108.133 98.7067V116.587C108.133 132.053 108.107 134.587 107.933 135.32C107.333 137.827 105.293 140.013 102.453 141.2C100.4 142.053 102.107 142.013 71.9334 141.96C40.9867 141.92 44.0667 142.04 41.6667 140.867C39.7601 139.947 38.2667 138.507 37.3734 136.747C36.6534 135.333 36.6667 135.76 36.6667 116.52V98.7067L37.3601 98.6267C38.3467 98.5067 39.9468 97.9467 40.9334 97.36C42.1601 96.64 65.3734 78.5467 66.2934 77.6C67.2134 76.64 67.9468 75.3467 68.3867 73.9333C68.6667 73.0133 68.7067 72.6 68.7067 70.9333C68.7067 69.2133 68.6667 68.8667 68.3467 67.8133C67.8801 66.2533 66.9867 64.5333 66.0667 63.4267C65.3601 62.5867 65.3467 62.5333 65.6934 62.6267C65.8934 62.68 66.6934 62.72 67.4667 62.7333C68.7868 62.7333 68.9201 62.7067 69.7334 62.3067C70.2134 62.0667 70.7734 61.6933 70.9867 61.48C71.2134 61.2533 71.4268 61.0667 71.4668 61.0667C71.5067 61.0667 71.7467 61.2667 71.9867 61.52ZM59.6667 61.5333C63.0934 62.4 65.8267 65.3867 66.5868 69.0933C66.7067 69.6667 66.8001 70.4933 66.8001 70.96C66.7868 72.84 66.0134 75 64.9201 76.16C64.4801 76.6267 48.1201 89.4667 41.1068 94.84C40.0401 95.6533 38.5734 96.3467 37.4001 96.6C32.3334 97.6667 27.2001 94.0533 26.0801 88.6267C25.4001 85.36 26.5067 81.7867 28.8667 79.6133C29.5067 79.0267 54.0934 62.6267 55.2401 62.0267C56.5201 61.36 58.2134 61.16 59.6667 61.5333ZM86.6934 61.48C87.0801 61.56 87.6801 61.76 88.0134 61.9333C88.7734 62.3067 113.44 78.6533 114.24 79.3067C116.333 81.0267 117.613 84.1733 117.427 87.12C117.333 88.64 117.067 89.64 116.413 91C114.08 95.88 108.533 98 103.947 95.7467C103.093 95.32 100.36 93.2533 91.1334 86.0667C84.6801 81.04 79.0801 76.6133 78.6934 76.2267C77.0401 74.6133 76.3334 71.88 76.8534 69.1467C77.8134 64.1867 82.4268 60.5867 86.6934 61.48Z" fill="white"/>
</svg>
